<?xml version="1.0" encoding="UTF-8" standalone="no"?>
<!DOCTYPE svg PUBLIC "-//W3C//DTD SVG 1.1//EN" "http://www.w3.org/Graphics/SVG/1.1/DTD/svg11.dtd">
<svg xmlns="http://www.w3.org/2000/svg" version="1.1" viewBox="0 0 511 511">
<path fill="#000000" d="
  M 265.02 457.33
  L 258.06 463.06
  Q 256.47 464.36 255.06 463.20
  L 244.13 454.23
  A 0.73 0.73 31.9 0 0 243.00 454.49
  Q 237.12 467.88 229.71 480.47
  Q 217.40 501.38 194.69 502.54
  Q 187.30 502.92 176.55 500.14
  Q 162.34 496.46 148.81 490.86
  A 1.89 1.89 15.8 0 1 147.66 488.81
  L 160.42 408.49
  A 1.23 1.21 32.3 0 0 160.21 407.59
  Q 148.67 391.48 138.01 374.79
  Q 127.45 358.23 127.27 357.92
  Q 116.91 339.68 116.25 318.00
  Q 116.16 315.16 117.10 311.22
  Q 120.82 295.52 123.37 279.57
  Q 126.39 260.75 129.21 241.90
  Q 132.25 221.56 136.88 201.53
  Q 138.32 195.28 142.15 190.16
  Q 144.30 187.30 147.50 186.29
  Q 151.88 184.91 151.97 184.87
  Q 182.43 171.52 212.86 158.08
  Q 214.78 157.24 216.19 155.77
  Q 218.38 153.50 218.94 152.69
  Q 222.04 148.20 226.25 144.75
  Q 228.32 143.06 228.22 140.25
  Q 228.12 137.43 227.74 134.63
  Q 227.72 134.52 227.56 132.23
  Q 227.41 130.11 226.19 128.56
  Q 224.56 126.51 223.45 124.73
  Q 222.39 123.02 221.64 120.43
  Q 220.16 115.28 219.02 110.10
  A 1.36 1.35 -0.6 0 0 217.95 109.06
  Q 214.99 108.51 213.25 106.06
  Q 204.92 94.27 204.75 80.25
  Q 204.71 76.96 206.93 74.14
  A 1.26 1.19 -29.7 0 0 207.20 73.25
  Q 206.26 63.57 204.95 53.94
  Q 204.17 48.25 204.85 44.92
  Q 205.77 40.38 208.22 36.37
  Q 208.34 36.16 210.21 34.02
  Q 211.19 32.88 211.75 31.25
  Q 217.26 15.16 233.56 9.31
  Q 244.81 5.28 258.43 4.46
  Q 267.59 3.91 273.06 4.41
  Q 280.43 5.08 287.43 7.84
  Q 290.64 9.11 293.47 11.01
  Q 296.00 12.71 298.46 15.59
  Q 304.50 22.63 308.43 31.06
  Q 308.46 31.11 310.23 35.64
  Q 311.99 40.12 315.12 43.48
  A 1.76 1.75 -47.8 0 1 315.23 45.76
  Q 313.67 47.80 314.85 49.36
  Q 317.54 52.94 313.75 55.00
  Q 309.77 57.16 310.50 61.25
  Q 311.33 65.90 310.79 73.01
  A 1.15 1.06 27.1 0 0 311.10 73.86
  Q 313.78 76.83 313.57 81.00
  Q 313.04 91.34 308.06 101.81
  Q 305.36 107.50 300.04 109.40
  A 0.89 0.84 -5.1 0 0 299.47 110.05
  Q 297.72 118.99 293.87 127.20
  Q 292.76 129.58 292.58 132.05
  Q 292.36 134.94 292.06 137.81
  Q 291.85 139.81 292.62 142.09
  Q 293.20 143.83 295.13 145.36
  Q 300.34 149.50 304.56 154.69
  Q 306.54 157.11 309.36 158.32
  Q 311.55 159.26 311.59 159.28
  Q 337.97 172.13 364.50 184.67
  Q 367.76 186.21 369.71 188.38
  Q 374.66 193.85 376.25 200.00
  Q 379.30 211.77 381.45 228.76
  Q 383.15 242.12 383.16 242.22
  Q 386.14 264.37 388.63 285.42
  Q 389.01 288.61 391.27 290.89
  Q 396.30 295.99 394.00 302.74
  Q 393.27 304.90 393.49 307.18
  Q 394.96 321.93 392.74 336.50
  Q 390.79 349.31 384.19 358.94
  Q 375.15 372.12 371.41 378.62
  Q 363.05 393.12 353.67 406.98
  Q 353.63 407.04 352.60 408.29
  Q 351.39 409.75 351.89 411.71
  Q 352.32 413.38 352.34 413.46
  Q 358.92 452.27 365.63 490.74
  Q 365.94 492.51 364.32 493.31
  Q 357.20 496.81 349.52 498.84
  Q 339.15 501.59 328.67 503.88
  Q 316.79 506.48 313.26 506.71
  Q 305.20 507.21 297.50 504.50
  Q 290.00 501.86 284.64 496.31
  Q 280.95 492.49 276.69 483.78
  Q 270.43 470.97 265.60 457.53
  A 0.39 0.36 61.9 0 0 265.02 457.33
  Z
  M 210.10 72.37
  Q 213.82 73.21 214.44 76.06
  Q 215.50 80.94 216.87 85.10
  Q 217.57 87.22 217.76 85.00
  Q 218.45 77.14 219.12 69.71
  Q 219.32 67.48 220.16 65.58
  Q 221.03 63.60 222.00 61.66
  Q 223.30 59.05 223.54 56.55
  Q 223.89 52.94 224.00 49.38
  A 2.62 2.61 78.8 0 1 225.54 47.07
  Q 241.26 40.09 258.50 40.32
  Q 276.18 40.55 293.52 47.76
  A 1.69 1.69 8.6 0 1 294.55 49.15
  Q 295.10 54.32 295.37 58.37
  Q 295.51 60.50 296.58 62.34
  Q 297.94 64.67 299.22 67.06
  Q 300.23 68.93 300.28 71.19
  Q 300.42 77.90 301.20 84.56
  A 0.81 0.59 -88.1 0 0 301.64 85.21
  Q 302.11 85.36 302.05 84.60
  Q 302.01 84.15 302.04 83.89
  Q 302.60 79.48 303.99 75.26
  Q 304.34 74.20 304.94 73.54
  Q 305.86 72.53 306.65 72.44
  Q 308.78 72.21 308.61 70.07
  Q 308.14 64.25 308.03 59.31
  Q 307.98 56.84 309.01 55.47
  Q 310.26 53.81 312.37 52.85
  A 1.30 1.30 -25.0 0 0 313.01 51.10
  Q 312.12 49.25 311.31 47.89
  Q 310.38 46.32 312.15 44.44
  A 0.48 0.47 43.3 0 0 312.12 43.77
  Q 310.29 42.09 309.29 39.36
  Q 305.31 28.46 298.31 19.22
  Q 292.86 12.05 284.00 9.25
  Q 274.99 6.40 266.00 6.52
  Q 254.04 6.67 242.56 9.45
  Q 231.19 12.21 225.35 16.52
  Q 217.50 22.30 214.06 32.31
  Q 213.83 32.98 211.69 35.94
  Q 208.69 40.07 207.43 44.91
  Q 206.67 47.83 207.26 52.13
  Q 208.57 61.74 209.55 71.75
  A 0.71 0.70 -86.6 0 0 210.10 72.37
  Z
  M 218.74 94.76
  Q 217.11 95.40 216.56 93.56
  Q 214.22 85.86 212.31 78.04
  Q 211.92 76.44 211.08 75.79
  Q 209.34 74.45 208.06 77.28
  Q 207.20 79.20 207.50 82.50
  Q 208.63 94.72 214.72 103.83
  Q 216.63 106.68 220.08 106.94
  A 1.13 1.12 85.4 0 1 221.09 107.81
  Q 222.55 114.12 224.41 120.45
  Q 225.13 122.90 227.06 125.44
  Q 234.24 134.87 243.44 141.31
  Q 249.06 145.25 254.14 147.44
  Q 259.72 149.85 264.65 149.01
  Q 270.30 148.05 275.56 144.06
  Q 287.63 134.93 293.10 122.35
  Q 294.05 120.15 295.49 115.01
  Q 296.53 111.30 297.78 107.65
  A 0.89 0.83 1.9 0 1 298.42 107.09
  Q 302.89 106.06 305.19 101.69
  Q 310.47 91.66 311.00 81.00
  Q 311.17 77.65 309.06 75.64
  A 1.32 1.16 63.5 0 0 308.18 75.28
  Q 307.38 75.30 306.79 75.76
  Q 306.24 76.20 306.00 77.34
  Q 304.27 85.42 301.66 93.27
  Q 301.39 94.08 301.00 94.51
  Q 300.06 95.54 299.36 94.47
  Q 299.01 93.94 298.95 92.93
  Q 298.32 82.29 297.66 70.18
  Q 297.62 69.33 297.17 68.60
  Q 295.44 65.76 294.21 63.43
  Q 293.02 61.18 292.83 58.29
  Q 292.58 54.51 292.25 50.70
  A 1.14 1.13 -80.8 0 0 291.58 49.76
  Q 284.08 46.44 276.08 44.85
  Q 268.31 43.30 260.01 43.01
  Q 243.10 42.43 227.13 49.05
  A 1.00 0.99 -9.8 0 0 226.51 49.92
  Q 226.32 54.21 225.90 58.26
  Q 225.71 60.11 224.79 61.91
  Q 223.90 63.64 223.05 65.41
  Q 221.82 67.97 221.55 70.97
  Q 220.57 81.81 219.32 94.00
  A 0.92 0.91 82.7 0 1 218.74 94.76
  Z
  M 255.81 150.94
  Q 242.13 145.64 231.38 134.48
  Q 230.09 133.14 230.33 134.92
  L 231.20 141.19
  A 1.35 1.03 20.2 0 0 231.71 141.99
  Q 244.20 151.36 258.15 158.93
  A 1.29 1.28 51.2 0 0 259.11 159.04
  Q 269.69 156.10 278.08 149.44
  Q 282.50 145.93 282.64 145.82
  Q 285.80 143.39 288.81 140.77
  A 1.41 0.84 -28.2 0 0 289.30 139.95
  L 289.78 133.99
  Q 289.83 133.39 289.46 133.90
  Q 284.99 139.93 278.31 145.31
  Q 271.95 150.44 264.41 151.71
  Q 262.37 152.06 260.08 151.80
  Q 257.21 151.48 255.81 150.94
  Z
  M 280.47 193.14
  Q 286.10 172.02 291.29 151.11
  Q 291.78 149.14 291.45 147.36
  Q 291.08 145.40 290.54 143.63
  A 0.50 0.50 -29.1 0 0 289.73 143.40
  Q 286.51 146.16 283.18 148.71
  Q 283.08 148.79 279.03 152.02
  Q 271.97 157.64 263.78 160.10
  A 0.97 0.97 61.6 0 0 263.32 161.65
  Q 265.47 164.19 266.67 166.89
  Q 272.56 180.02 279.51 193.25
  Q 280.13 194.43 280.47 193.14
  Z
  M 253.76 159.32
  Q 241.85 152.79 230.65 144.51
  A 0.43 0.43 -66.9 0 0 229.98 144.78
  Q 229.81 145.75 229.52 146.93
  Q 229.25 148.03 229.44 149.08
  Q 233.00 169.44 238.95 189.96
  Q 239.16 190.66 239.49 190.01
  Q 241.99 185.07 244.20 180.52
  Q 244.85 179.20 248.33 170.78
  Q 250.67 165.11 253.96 160.15
  A 0.58 0.58 -58.9 0 0 253.76 159.32
  Z
  M 166.40 401.88
  Q 165.97 402.65 164.25 402.26
  Q 161.81 401.71 160.74 399.82
  Q 159.83 398.22 160.25 395.94
  Q 160.58 394.19 161.44 391.94
  Q 168.40 373.74 178.51 359.99
  Q 184.90 351.31 194.91 349.29
  Q 196.14 349.05 195.08 348.36
  Q 188.15 343.89 182.15 338.54
  Q 181.07 337.58 173.17 329.18
  Q 168.09 323.78 161.06 317.94
  Q 151.70 310.15 135.95 306.99
  A 0.25 0.25 -78.1 0 1 135.76 306.70
  Q 136.14 304.85 138.03 305.15
  Q 138.91 305.29 138.98 305.30
  Q 147.16 306.15 155.19 310.81
  Q 164.83 316.42 172.32 324.70
  Q 172.97 325.42 173.00 324.45
  Q 173.24 316.37 172.82 308.29
  Q 172.47 301.41 170.90 292.30
  Q 166.68 267.70 161.55 242.54
  Q 161.37 241.65 160.78 240.96
  Q 155.24 234.54 150.14 228.37
  Q 149.61 227.72 149.61 227.11
  Q 149.60 225.81 150.89 226.06
  Q 151.59 226.20 152.24 226.94
  Q 156.00 231.21 159.38 235.46
  Q 160.46 236.82 160.14 235.12
  Q 157.38 220.28 153.78 206.05
  Q 153.54 205.08 153.57 204.31
  Q 153.70 201.33 155.44 203.30
  Q 155.98 203.91 156.20 204.89
  Q 165.89 247.74 173.26 291.06
  Q 174.97 301.15 175.36 309.04
  Q 175.80 318.11 175.58 327.19
  A 1.33 1.31 26.7 0 0 175.88 328.08
  Q 185.38 339.58 198.13 347.40
  Q 202.17 349.87 203.44 351.31
  Q 206.79 355.13 211.74 356.29
  Q 226.26 359.69 229.27 374.30
  Q 230.87 382.10 231.75 383.75
  Q 234.59 389.07 236.36 394.57
  A 0.98 0.98 81.0 0 0 237.29 395.25
  L 249.92 395.25
  A 0.87 0.86 87.6 0 0 250.78 394.31
  Q 248.49 367.79 249.60 341.50
  Q 250.29 325.06 252.25 316.25
  Q 256.46 297.34 260.70 278.39
  Q 260.90 277.49 260.65 276.61
  Q 249.13 236.23 238.27 196.77
  Q 238.24 196.66 235.14 185.75
  Q 229.93 167.41 226.91 149.02
  Q 226.67 147.58 225.70 148.67
  Q 221.93 152.94 218.23 157.24
  Q 213.12 163.17 206.80 167.82
  Q 205.62 168.69 207.08 168.77
  Q 209.19 168.88 211.43 169.56
  Q 212.38 169.86 212.62 170.48
  Q 212.99 171.45 211.68 172.17
  Q 205.24 175.73 199.04 179.19
  A 0.56 0.55 -28.9 0 0 198.82 179.94
  Q 215.91 211.86 233.06 242.69
  Q 239.89 254.96 252.71 273.86
  Q 253.34 274.79 253.48 275.35
  Q 253.83 276.73 252.38 276.94
  A 1.20 1.19 69.3 0 1 251.19 276.40
  Q 246.46 268.93 242.02 262.22
  Q 236.84 254.38 233.13 247.84
  Q 214.19 214.42 196.02 180.24
  Q 195.11 178.54 196.76 177.54
  Q 201.27 174.79 206.50 172.25
  Q 207.17 171.93 207.15 171.52
  A 0.75 0.50 0.6 0 0 206.44 171.04
  Q 204.22 170.94 203.01 170.47
  Q 200.64 169.56 202.60 167.95
  Q 205.26 165.75 207.50 163.99
  Q 208.87 162.91 207.71 163.13
  Q 207.47 163.17 207.19 163.30
  Q 179.55 175.70 151.75 187.75
  Q 150.57 188.26 149.64 188.45
  Q 147.95 188.80 147.55 189.00
  Q 145.18 190.17 143.69 192.43
  Q 141.57 195.63 140.19 199.16
  Q 139.21 201.67 138.24 206.45
  Q 133.65 229.14 130.36 252.07
  Q 126.78 277.00 121.69 301.65
  Q 119.19 313.77 119.06 315.40
  Q 118.54 321.92 120.00 329.50
  Q 123.40 347.16 131.52 359.76
  Q 142.43 376.69 153.44 393.56
  Q 157.80 400.24 163.30 407.05
  Q 164.94 409.07 167.53 409.33
  Q 177.57 410.31 185.84 402.30
  A 3.49 2.85 71.1 0 0 186.74 399.87
  L 186.50 391.17
  Q 186.44 388.93 185.03 390.60
  Q 180.67 395.76 173.34 395.42
  Q 170.97 395.31 169.03 394.15
  Q 167.06 392.98 165.43 391.30
  A 0.78 0.78 32.7 0 0 164.14 391.58
  Q 163.33 393.80 162.79 396.26
  Q 162.17 399.04 165.60 399.98
  A 1.31 1.31 -67.8 0 1 166.40 401.88
  Z
  M 313.12 163.75
  L 321.94 172.81
  Q 323.77 174.70 320.50 175.00
  L 317.37 175.29
  Q 315.67 175.44 317.05 176.43
  L 324.57 181.82
  Q 326.09 182.92 325.21 184.64
  L 304.46 225.08
  A 0.64 0.64 13.1 0 0 305.04 226.01
  L 334.17 225.25
  Q 336.26 225.20 336.25 227.23
  L 336.20 234.94
  A 0.94 0.89 75.3 0 1 335.77 235.73
  Q 334.56 236.46 334.01 235.33
  Q 333.75 234.79 333.80 233.63
  Q 333.91 230.95 333.51 228.31
  A 0.56 0.56 -5.1 0 0 332.93 227.83
  L 304.09 228.54
  A 2.15 2.10 12.5 0 0 302.24 229.69
  Q 294.40 244.92 286.44 260.88
  Q 279.25 275.28 270.86 289.00
  Q 270.35 289.84 269.88 290.27
  Q 268.30 291.74 268.04 289.50
  A 1.59 1.31 -37.8 0 1 268.25 288.57
  Q 277.16 273.41 285.07 257.71
  Q 293.00 241.98 293.07 241.84
  Q 307.67 213.43 322.32 184.56
  A 1.07 1.07 -57.8 0 0 322.02 183.23
  Q 317.08 179.43 312.62 176.32
  Q 311.92 175.83 311.68 175.40
  Q 311.23 174.58 311.77 173.95
  Q 312.20 173.46 313.27 173.27
  Q 315.12 172.96 317.02 173.00
  Q 318.66 173.04 317.50 171.88
  Q 309.28 163.59 301.19 154.81
  Q 297.20 150.48 294.89 148.57
  A 0.32 0.31 27.2 0 0 294.38 148.73
  Q 287.65 176.86 280.11 204.78
  Q 274.94 223.94 271.50 240.00
  Q 263.05 279.40 256.89 307.07
  Q 254.48 317.85 253.60 324.02
  Q 252.31 333.10 252.00 341.25
  Q 251.00 367.67 253.30 394.54
  A 0.78 0.77 87.6 0 0 254.07 395.25
  L 275.91 395.25
  A 1.85 1.83 8.6 0 0 277.67 393.96
  Q 278.98 389.83 281.19 385.69
  Q 283.10 382.10 284.01 376.00
  Q 285.94 362.93 297.26 357.82
  Q 297.31 357.80 302.87 356.15
  Q 306.37 355.10 309.08 352.67
  Q 312.56 349.54 313.45 348.92
  Q 321.74 343.22 324.44 341.19
  Q 331.26 336.05 336.52 329.77
  A 2.16 2.13 64.3 0 0 337.02 328.31
  Q 336.60 317.58 337.28 307.15
  Q 337.79 299.30 339.89 287.34
  Q 347.03 246.66 356.22 204.62
  A 2.56 2.55 -4.6 0 1 357.79 202.78
  Q 359.69 202.05 359.07 204.77
  Q 348.99 248.46 341.58 292.69
  Q 340.01 302.04 339.66 308.90
  Q 339.23 317.07 339.50 325.27
  Q 339.55 326.67 340.48 325.62
  Q 349.92 315.04 362.81 308.56
  Q 368.12 305.90 374.89 305.30
  Q 374.94 305.30 376.10 305.10
  Q 377.83 304.80 378.18 306.64
  A 0.30 0.29 -11.5 0 1 377.94 306.99
  Q 362.27 310.21 352.24 318.25
  Q 351.07 319.18 346.60 323.09
  Q 342.99 326.26 341.31 328.31
  Q 331.57 340.28 318.43 348.54
  Q 317.73 348.98 318.54 349.17
  Q 326.53 350.99 331.36 355.64
  Q 335.94 360.04 339.30 365.45
  Q 346.36 376.83 351.33 389.25
  Q 352.95 393.28 353.08 395.41
  Q 353.30 398.99 351.31 401.81
  Q 349.39 404.53 345.80 403.58
  A 1.43 1.19 -5.2 0 1 345.02 403.04
  Q 343.70 401.01 347.59 401.00
  A 1.98 1.96 -73.9 0 0 349.26 400.07
  Q 351.57 396.39 349.63 391.74
  A 0.91 0.91 -35.1 0 0 348.12 391.48
  Q 343.03 396.98 336.09 394.87
  Q 331.42 393.44 327.86 390.10
  Q 327.47 389.73 327.46 390.25
  L 327.29 400.72
  A 2.55 2.22 24.6 0 0 328.10 402.51
  Q 335.20 409.09 344.19 409.48
  Q 346.32 409.58 347.75 408.99
  Q 349.59 408.24 350.69 406.69
  Q 359.43 394.27 368.71 378.15
  Q 373.36 370.07 381.69 357.94
  Q 389.42 346.67 390.75 332.25
  Q 392.04 318.25 390.98 307.39
  Q 390.77 305.21 391.28 303.17
  Q 391.79 301.08 392.25 298.98
  Q 392.74 296.79 391.25 295.10
  Q 389.38 292.99 387.87 290.49
  Q 386.54 288.28 386.14 285.18
  Q 382.87 259.33 379.49 233.50
  Q 377.65 219.43 374.93 205.51
  Q 373.84 199.97 370.69 194.06
  Q 367.83 188.71 362.68 186.59
  Q 359.51 185.28 359.40 185.23
  Q 336.42 174.17 313.61 163.05
  Q 311.39 161.97 313.12 163.75
  Z
  M 254.92 185.65
  Q 258.58 184.52 263.45 185.49
  A 0.94 0.94 -74.7 0 0 264.52 184.88
  L 267.58 176.22
  A 1.35 1.34 44.7 0 0 267.57 175.28
  Q 264.36 166.98 261.44 163.31
  Q 259.14 160.43 256.52 161.92
  Q 255.07 162.74 253.77 165.25
  Q 251.38 169.87 249.66 174.79
  A 1.63 1.51 48.5 0 0 249.64 175.74
  Q 251.19 180.90 254.16 185.39
  A 0.68 0.65 -24.8 0 0 254.92 185.65
  Z
  M 247.68 179.47
  L 240.46 193.83
  A 1.37 1.29 52.3 0 0 240.37 194.79
  L 246.15 215.84
  Q 246.60 217.45 246.90 215.81
  L 251.91 188.49
  A 1.69 1.45 -55.4 0 0 251.81 187.53
  L 248.22 179.48
  Q 247.96 178.91 247.68 179.47
  Z
  M 269.19 179.55
  Q 267.95 182.70 267.12 185.62
  Q 266.48 187.88 266.97 190.41
  Q 269.76 204.76 272.71 219.17
  Q 273.20 221.55 273.80 219.18
  L 278.87 199.36
  A 3.02 2.88 -52.3 0 0 278.65 197.26
  L 269.64 179.53
  Q 269.39 179.04 269.19 179.55
  Z
  M 265.60 255.32
  Q 268.45 242.29 271.49 228.16
  Q 271.71 227.13 271.50 226.13
  L 264.01 189.18
  A 1.29 1.27 4.8 0 0 263.20 188.24
  Q 258.94 186.66 255.01 188.36
  A 0.94 0.90 84.4 0 0 254.47 189.05
  L 248.34 221.54
  Q 248.13 222.64 248.42 223.69
  L 261.56 270.46
  Q 262.04 272.15 262.39 270.43
  Q 263.91 263.06 265.60 255.32
  Z
  M 218.28 383.15
  Q 219.62 382.83 220.02 384.49
  Q 220.78 387.62 221.27 390.79
  Q 222.26 397.21 226.05 402.45
  Q 228.38 405.68 231.75 404.50
  Q 235.27 403.27 234.75 399.00
  Q 234.17 394.21 230.88 387.66
  Q 228.82 383.56 227.83 379.13
  Q 226.15 371.60 226.15 371.58
  Q 223.70 365.00 217.44 361.05
  Q 215.54 359.85 213.40 359.33
  Q 209.71 358.42 209.66 358.41
  Q 205.32 356.84 201.81 353.91
  Q 200.53 352.84 198.88 353.09
  Q 193.08 353.93 190.01 357.50
  Q 183.48 365.12 178.25 374.75
  A 1.43 1.42 -60.4 0 0 178.77 376.66
  Q 184.64 380.15 187.63 385.97
  Q 188.74 388.11 188.92 390.86
  Q 189.09 393.42 189.01 396.00
  Q 188.93 398.36 190.06 402.94
  Q 190.55 404.90 191.12 411.37
  Q 191.36 414.17 192.69 415.56
  Q 194.51 417.47 197.44 418.31
  Q 199.27 418.84 208.96 422.31
  Q 209.21 422.40 209.61 422.64
  Q 210.28 423.05 210.41 422.55
  A 0.74 0.55 22.3 0 0 209.98 421.84
  Q 205.58 419.72 201.23 417.47
  Q 201.16 417.43 199.57 416.84
  Q 198.44 416.42 197.82 415.37
  A 0.87 0.86 74.0 0 1 198.54 414.06
  Q 200.21 414.03 201.67 414.84
  Q 210.62 419.78 220.09 423.63
  Q 221.15 424.06 221.38 423.55
  A 0.61 0.44 21.9 0 0 220.96 422.89
  Q 216.72 421.31 213.56 419.19
  Q 206.14 414.21 201.06 411.18
  Q 200.28 410.72 199.94 410.31
  Q 198.91 409.10 200.44 408.66
  Q 201.17 408.45 202.00 408.82
  Q 204.98 410.16 207.53 412.21
  Q 208.08 412.66 208.30 412.49
  A 0.71 0.37 51.8 0 0 208.15 411.70
  Q 203.10 405.30 197.73 399.16
  Q 197.23 398.59 197.16 398.08
  Q 197.00 396.98 198.19 397.01
  A 1.44 1.10 61.8 0 1 199.05 397.40
  Q 205.92 403.90 211.22 411.75
  Q 213.36 414.92 216.94 414.19
  Q 219.18 413.73 221.76 412.20
  A 0.97 0.95 76.4 0 0 222.22 411.43
  Q 222.46 407.61 222.55 403.77
  Q 222.55 403.71 222.64 402.85
  Q 222.83 400.97 220.22 402.06
  A 1.88 1.88 63.1 0 1 217.88 401.29
  Q 214.26 395.28 211.81 388.83
  Q 211.47 387.94 211.55 387.11
  Q 211.86 384.07 213.65 386.43
  Q 214.51 387.58 214.80 388.99
  Q 215.34 391.70 216.45 390.90
  Q 216.92 390.57 217.30 390.46
  Q 218.92 390.02 218.44 388.56
  Q 217.51 385.76 217.74 383.80
  A 0.77 0.71 87.0 0 1 218.28 383.15
  Z
  M 296.05 383.55
  Q 296.56 386.11 295.47 388.54
  A 1.10 0.86 -51.7 0 0 295.47 389.45
  Q 296.31 390.95 298.06 390.87
  A 0.76 0.76 7.3 0 0 298.74 390.35
  L 299.93 386.79
  A 1.84 1.01 -87.0 0 1 300.43 385.98
  Q 301.91 384.74 302.35 386.39
  Q 302.55 387.12 302.21 388.08
  Q 299.97 394.41 296.54 400.18
  Q 295.81 401.43 294.92 401.78
  Q 293.70 402.25 292.43 401.67
  A 0.83 0.82 11.6 0 0 291.25 402.44
  L 291.53 411.01
  A 1.53 1.42 16.6 0 0 292.22 412.18
  Q 295.82 414.53 298.97 414.00
  Q 300.75 413.71 302.40 411.55
  Q 309.97 401.68 314.19 397.69
  Q 316.21 395.78 316.62 397.94
  A 1.13 0.97 -32.9 0 1 316.36 398.82
  Q 310.80 405.27 305.45 411.89
  Q 305.29 412.09 305.25 412.28
  Q 305.16 412.71 305.45 412.73
  Q 305.63 412.73 305.88 412.53
  Q 308.66 410.28 311.89 408.78
  Q 312.60 408.45 313.16 408.54
  Q 314.24 408.73 314.07 409.71
  A 1.35 0.92 -20.3 0 1 313.53 410.47
  Q 303.49 417.49 292.69 423.26
  A 0.38 0.32 -40.8 0 0 292.59 423.86
  Q 292.87 424.04 293.18 423.88
  Q 294.04 423.43 294.04 423.43
  Q 298.10 422.25 300.94 420.69
  Q 308.20 416.68 313.56 414.30
  Q 314.33 413.96 315.01 414.08
  Q 316.61 414.35 315.93 415.52
  Q 315.60 416.11 314.69 416.55
  Q 309.81 418.91 304.94 421.31
  Q 304.68 421.44 304.49 421.65
  Q 303.49 422.74 304.80 422.29
  Q 310.85 420.18 316.95 418.24
  Q 319.53 417.42 321.16 415.53
  Q 322.41 414.09 322.69 411.07
  Q 323.17 406.01 324.31 401.06
  Q 324.83 398.84 324.97 391.29
  Q 325.02 388.44 325.68 386.81
  Q 326.55 384.65 328.12 382.87
  Q 331.19 379.39 335.07 376.59
  A 1.50 1.50 57.9 0 0 335.51 374.66
  Q 330.92 366.18 325.51 359.04
  Q 321.84 354.19 315.13 353.07
  Q 313.46 352.80 312.18 353.89
  Q 309.08 356.52 305.04 358.06
  Q 305.03 358.06 300.92 359.28
  Q 289.15 362.76 286.91 375.48
  Q 285.68 382.50 282.94 387.94
  Q 280.42 392.93 279.38 397.69
  Q 278.83 400.22 279.36 401.81
  Q 280.19 404.33 282.93 404.67
  Q 284.77 404.90 286.27 403.89
  Q 287.72 402.91 288.69 401.19
  Q 291.50 396.16 292.31 391.06
  Q 293.05 386.38 294.31 383.56
  Q 294.63 382.85 295.44 382.94
  A 0.77 0.69 86.8 0 1 296.05 383.55
  Z
  M 166.58 388.61
  Q 168.57 390.82 170.61 391.99
  Q 172.82 393.26 175.59 392.79
  Q 180.95 391.88 184.74 387.01
  A 0.99 0.98 -44.2 0 0 184.76 385.82
  Q 182.00 381.98 177.12 378.72
  A 0.44 0.44 -61.4 0 0 176.48 378.91
  Q 174.69 382.97 174.89 386.31
  A 1.06 0.94 17.3 0 0 175.35 387.07
  Q 177.21 388.33 175.88 389.66
  A 0.93 0.91 28.5 0 1 175.01 389.91
  Q 171.98 389.26 172.25 385.75
  Q 172.73 379.67 175.29 374.61
  Q 180.58 364.13 188.54 355.33
  Q 190.64 353.00 187.97 354.64
  Q 183.48 357.40 179.50 362.98
  Q 171.51 374.21 166.27 386.75
  A 1.77 1.77 -54.6 0 0 166.58 388.61
  Z
  M 325.40 355.30
  Q 332.91 363.83 338.16 373.92
  Q 340.96 379.30 341.50 385.00
  Q 341.76 387.78 339.89 389.75
  Q 339.40 390.27 338.83 390.33
  Q 338.06 390.40 337.56 389.90
  A 0.74 0.61 -54.7 0 1 337.50 389.07
  Q 340.17 384.29 337.42 378.90
  A 0.63 0.62 -31.4 0 0 336.50 378.68
  Q 332.83 381.31 329.07 385.73
  A 1.12 1.12 -42.7 0 0 329.01 387.11
  Q 332.46 391.86 338.26 392.78
  Q 341.00 393.22 343.05 392.05
  Q 344.98 390.96 346.97 388.83
  A 2.19 2.19 -35.1 0 0 347.39 386.46
  Q 342.63 375.40 336.06 365.19
  Q 332.26 359.27 325.81 354.37
  Q 325.55 354.18 325.26 354.14
  Q 323.80 353.93 324.94 354.87
  Q 325.22 355.10 325.40 355.30
  Z
  M 217.49 394.18
  Q 217.84 397.19 219.69 399.06
  Q 220.28 399.67 220.74 399.16
  A 0.98 0.68 61.0 0 0 220.83 398.28
  Q 220.26 396.72 219.77 395.13
  Q 219.63 394.68 219.48 393.72
  Q 219.11 391.40 217.72 393.27
  A 1.33 1.25 60.8 0 0 217.49 394.18
  Z
  M 294.44 393.69
  Q 294.48 394.58 293.16 397.86
  Q 292.98 398.30 293.07 398.68
  Q 293.33 399.88 294.25 398.55
  Q 295.66 396.50 296.46 394.85
  A 1.38 1.37 33.3 0 0 296.12 393.21
  Q 294.34 391.66 294.44 393.69
  Z
  M 282.58 407.07
  Q 276.32 405.98 276.53 398.52
  A 0.69 0.69 -89.2 0 0 275.84 397.81
  L 237.98 397.75
  A 0.75 0.75 88.5 0 0 237.23 398.54
  Q 237.64 407.18 229.50 407.19
  Q 227.22 407.19 225.98 405.88
  Q 225.07 404.90 225.00 406.24
  L 224.26 421.44
  A 0.78 0.77 1.4 0 0 225.04 422.25
  L 288.48 422.25
  A 0.95 0.91 -1.4 0 0 289.43 421.29
  L 288.71 405.99
  Q 288.69 405.50 288.29 405.80
  Q 285.82 407.63 282.58 407.07
  Z
  M 293.58 499.68
  Q 303.06 505.02 313.78 504.23
  Q 316.95 503.99 333.32 500.20
  Q 343.07 497.94 352.67 495.12
  Q 357.23 493.78 362.21 491.52
  A 1.30 1.29 73.0 0 0 362.95 490.12
  L 349.52 412.06
  A 0.51 0.50 81.3 0 0 348.95 411.64
  Q 336.01 413.50 326.67 404.66
  Q 326.31 404.32 326.21 404.80
  Q 325.51 408.15 325.16 411.54
  Q 324.82 414.81 323.63 416.48
  Q 321.34 419.70 317.41 420.87
  Q 314.23 421.80 314.14 421.83
  Q 307.58 424.17 300.82 425.86
  Q 297.68 426.65 294.52 426.22
  Q 293.56 426.09 291.98 426.15
  Q 290.65 426.20 289.40 425.78
  Q 286.99 424.98 285.92 424.95
  Q 272.90 424.58 259.05 424.76
  A 0.99 0.98 -6.5 0 0 258.10 425.95
  Q 260.29 436.27 264.15 446.57
  Q 270.43 463.32 277.50 479.75
  Q 280.32 486.30 283.93 491.17
  Q 287.84 496.44 293.58 499.68
  Z
  M 150.89 489.04
  Q 165.31 494.83 180.35 498.39
  Q 189.10 500.46 195.33 500.01
  Q 215.88 498.50 227.08 479.82
  Q 233.27 469.50 238.35 458.58
  Q 245.99 442.18 252.87 425.82
  A 0.78 0.77 11.3 0 0 252.15 424.75
  Q 241.22 424.75 230.59 424.75
  Q 228.17 424.75 224.52 425.58
  Q 216.49 427.40 208.58 424.76
  Q 204.87 423.52 204.76 423.48
  Q 198.08 421.46 194.31 419.94
  Q 191.45 418.78 189.89 416.28
  Q 188.82 414.56 188.50 410.99
  Q 188.22 407.88 187.97 404.98
  Q 187.89 404.03 187.20 404.68
  Q 180.55 410.88 171.49 411.96
  Q 166.92 412.50 163.42 410.49
  A 0.51 0.50 -70.4 0 0 162.68 410.85
  L 150.36 488.11
  A 0.87 0.86 -75.1 0 0 150.89 489.04
  Z
  M 215.65 417.46
  L 220.78 420.09
  A 0.56 0.52 -63.7 0 0 221.50 419.81
  Q 222.19 418.36 221.82 415.73
  A 0.57 0.51 -13.4 0 0 221.09 415.34
  L 215.74 417.00
  Q 215.12 417.19 215.65 417.46
  Z
  M 297.47 416.69
  Q 295.28 416.72 292.72 415.39
  Q 291.38 414.70 291.60 416.13
  L 292.20 419.96
  A 0.40 0.39 -17.5 0 0 292.77 420.25
  L 297.76 417.74
  Q 299.90 416.67 297.47 416.69
  Z
  M 245.25 451.73
  L 256.00 460.59
  A 0.88 0.82 -45.4 0 0 257.09 460.54
  L 263.67 454.73
  A 1.36 1.29 -32.8 0 0 264.04 453.22
  Q 258.94 441.28 255.73 427.07
  Q 255.50 426.04 255.08 427.01
  L 244.96 450.39
  A 1.18 1.11 -59.0 0 0 245.25 451.73
  Z"
/>
<path fill="#000000" d="
  M 246.51 71.36
  Q 247.06 72.05 246.20 72.54
  A 1.47 0.99 28.0 0 1 245.26 72.64
  Q 239.25 71.31 233.15 72.15
  Q 232.33 72.27 231.83 72.23
  Q 229.87 72.08 231.23 70.82
  Q 231.64 70.44 232.27 70.32
  Q 238.94 69.03 245.48 70.78
  Q 246.20 70.97 246.51 71.36
  Z"
/>
<path fill="#000000" d="
  M 271.20 71.41
  A 0.83 0.82 89.5 0 1 271.81 70.78
  Q 278.85 69.05 285.59 70.36
  Q 286.39 70.52 286.77 70.92
  Q 287.47 71.67 286.44 72.28
  A 1.44 1.02 28.0 0 1 285.51 72.40
  Q 279.14 71.12 272.81 72.61
  Q 272.06 72.79 271.69 72.65
  Q 270.97 72.39 271.20 71.41
  Z"
/>
<ellipse fill="#000000" cx="0.00" cy="0.00" transform="translate(240.10,82.12) rotate(-0.1)" rx="5.24" ry="3.72"/>
<ellipse fill="#000000" cx="0.00" cy="0.00" transform="translate(278.85,82.11) rotate(0.2)" rx="5.24" ry="3.71"/>
<path fill="#000000" d="
  M 264.56 110.06
  Q 259.86 115.09 256.06 109.91
  Q 255.53 109.19 255.53 108.32
  Q 255.53 105.51 257.41 107.46
  Q 257.59 107.65 258.35 108.75
  Q 259.91 111.03 262.08 109.04
  Q 262.37 108.77 262.56 108.20
  Q 263.03 106.83 264.44 106.79
  A 0.73 0.69 78.6 0 1 265.13 107.28
  Q 265.67 108.88 264.56 110.06
  Z"
/>
<path fill="#000000" d="
  M 254.81 121.94
  Q 263.76 123.37 272.68 120.06
  Q 273.63 119.71 274.36 119.85
  Q 276.20 120.21 274.99 121.63
  Q 274.53 122.16 273.71 122.45
  Q 260.82 127.04 246.67 122.40
  A 2.06 2.05 -83.0 0 1 245.27 120.60
  Q 245.21 119.80 246.21 119.70
  Q 246.68 119.64 247.38 119.89
  Q 251.75 121.45 254.81 121.94
  Z"
/>
<path fill="#000000" d="
  M 366.20 295.99
  Q 367.56 296.56 366.78 297.57
  Q 366.44 298.02 365.64 298.23
  Q 358.03 300.26 354.78 307.41
  Q 354.35 308.33 353.74 308.65
  Q 352.53 309.27 352.18 308.02
  Q 352.01 307.41 352.33 306.65
  Q 355.76 298.55 364.55 295.91
  A 2.49 2.49 -42.1 0 1 366.20 295.99
  Z"
/>
<path fill="#000000" d="
  M 270.11 321.94
  A 6.20 6.20 0.0 0 1 263.91 328.14
  A 6.20 6.20 0.0 0 1 257.71 321.94
  A 6.20 6.20 0.0 0 1 263.91 315.74
  A 6.20 6.20 0.0 0 1 270.11 321.94
  Z
  M 267.55 321.93
  A 3.64 3.64 0.0 0 0 263.91 318.29
  A 3.64 3.64 0.0 0 0 260.27 321.93
  A 3.64 3.64 0.0 0 0 263.91 325.57
  A 3.64 3.64 0.0 0 0 267.55 321.93
  Z"
/>
<rect fill="#000000" x="-5.54" y="-1.25" transform="translate(263.07,378.85) rotate(-2.3)" width="11.08" height="2.50" rx="1.20"/>
</svg>
