<?xml version="1.0" encoding="UTF-8" standalone="no"?>
<!DOCTYPE svg PUBLIC "-//W3C//DTD SVG 1.1//EN" "http://www.w3.org/Graphics/SVG/1.1/DTD/svg11.dtd">
<svg xmlns="http://www.w3.org/2000/svg" version="1.1" viewBox="0 0 512 512">
<g stroke-width="2.00" fill="none" stroke-linecap="butt">
<path stroke="#000000" vector-effect="non-scaling-stroke" d="
  M 130.90 415.51
  Q 132.16 420.64 131.72 416.38
  Q 131.69 416.06 131.55 415.76
  Q 130.24 412.85 130.90 415.51"
/>
<path stroke="#808080" vector-effect="non-scaling-stroke" d="
  M 150.84 160.95
  Q 143.96 170.61 142.50 180.75
  Q 139.35 202.56 138.31 232.00"
/>
</g>
<path fill="#000000" d="
  M 512.02 191.50
  L 511.97 193.15
  L 464.85 178.37
  A 0.43 0.43 13.0 0 0 464.29 178.72
  Q 462.67 190.27 460.73 201.51
  Q 460.36 203.64 459.66 204.70
  Q 458.66 206.21 457.05 207.00
  Q 455.21 207.91 452.73 207.34
  Q 450.97 206.93 448.44 206.06
  Q 417.97 195.57 386.93 184.72
  A 1.34 1.33 36.6 0 0 385.69 184.90
  Q 380.49 188.65 375.58 191.78
  Q 371.13 194.62 370.24 194.98
  Q 367.03 196.27 363.75 195.00
  Q 346.42 188.31 329.06 181.69
  Q 325.42 180.30 326.95 177.13
  A 1.52 1.36 -87.2 0 1 327.62 176.45
  L 341.13 170.04
  Q 342.54 169.36 341.09 168.85
  Q 313.50 159.17 285.37 149.34
  Q 280.86 147.77 279.34 146.02
  Q 277.00 143.33 277.00 139.00
  Q 277.00 130.00 277.00 121.14
  A 1.16 1.13 8.7 0 0 276.18 120.05
  L 260.18 115.15
  A 1.98 1.82 37.6 0 0 258.69 115.28
  L 211.12 141.44
  A 1.41 1.14 -9.6 0 0 210.50 142.14
  L 208.38 148.27
  A 1.49 1.13 49.9 0 0 208.43 149.21
  Q 211.00 155.77 211.81 163.29
  Q 211.89 164.06 212.33 164.69
  Q 217.68 172.37 221.09 180.06
  Q 221.12 180.12 221.77 181.99
  Q 222.48 184.01 224.44 186.06
  Q 228.46 190.29 232.43 194.57
  Q 235.78 198.17 237.26 203.65
  Q 237.61 204.97 238.52 203.95
  Q 241.24 200.87 244.01 198.47
  Q 246.46 196.36 250.44 194.18
  Q 256.74 190.72 263.60 187.36
  Q 265.08 186.64 266.60 187.29
  Q 313.30 207.35 360.07 227.49
  Q 361.64 228.17 362.20 228.84
  Q 363.39 230.26 361.85 231.80
  A 1.08 0.50 -36.0 0 0 361.49 232.45
  Q 361.49 232.81 361.91 232.76
  Q 362.14 232.73 362.41 232.48
  Q 364.15 230.97 366.26 230.83
  Q 367.68 230.74 370.08 231.82
  Q 389.97 240.71 409.84 249.63
  Q 414.10 251.54 410.16 253.84
  Q 397.73 261.09 385.22 268.27
  Q 383.62 269.18 381.99 268.36
  L 340.80 247.68
  A 1.49 1.46 -74.1 0 1 340.00 246.21
  Q 340.27 243.68 338.75 245.37
  A 1.72 1.72 -56.9 0 1 336.77 245.79
  L 296.23 227.60
  A 0.75 0.73 24.1 0 0 295.25 227.96
  L 292.41 234.21
  A 0.55 0.54 26.1 0 0 292.66 234.92
  L 512.07 347.17
  L 511.87 349.31
  L 291.83 236.88
  A 1.30 1.10 -58.5 0 0 290.32 237.38
  L 288.53 239.94
  A 0.82 0.77 -58.3 0 0 288.77 241.11
  Q 362.08 280.03 434.62 318.84
  Q 443.34 323.51 452.20 328.36
  Q 482.15 344.75 512.09 361.14
  L 511.91 363.22
  Q 401.14 302.83 287.50 242.85
  A 0.77 0.77 31.7 0 0 286.51 243.08
  Q 283.19 247.71 278.06 251.06
  Q 275.85 252.51 277.41 255.13
  A 1.55 1.25 -0.3 0 0 278.16 255.73
  Q 282.14 257.25 283.78 260.81
  Q 284.53 262.45 285.49 267.76
  Q 287.07 276.51 286.03 285.27
  A 0.60 0.60 1.6 0 0 286.67 285.94
  Q 300.97 284.91 315.23 285.79
  Q 323.02 286.27 326.90 288.33
  Q 335.00 292.63 336.50 303.00
  Q 337.09 307.04 336.41 315.24
  Q 334.19 342.32 328.81 368.96
  Q 327.11 377.35 325.45 386.03
  A 1.02 1.02 -81.8 0 0 326.35 387.24
  Q 333.58 387.96 340.98 386.77
  Q 349.98 385.33 351.10 385.36
  Q 358.70 385.62 364.57 391.19
  Q 368.45 394.87 368.25 399.50
  Q 368.13 402.44 365.20 404.70
  Q 355.33 412.30 342.93 414.11
  Q 331.02 415.85 319.08 417.30
  Q 319.06 417.30 311.46 418.40
  Q 307.63 418.95 303.75 419.11
  Q 298.50 419.33 295.31 416.44
  Q 292.19 413.61 292.98 409.25
  Q 293.61 405.76 293.30 402.25
  Q 292.93 398.11 293.43 393.99
  Q 294.58 384.52 295.31 374.14
  A 0.44 0.44 80.1 0 0 294.70 373.71
  Q 285.69 377.65 277.06 381.06
  Q 275.49 381.68 270.77 385.57
  Q 266.61 389.00 264.49 390.02
  Q 256.26 393.98 248.06 389.19
  Q 246.59 388.33 246.72 386.57
  Q 246.89 384.25 246.86 383.89
  Q 246.57 380.07 247.47 376.33
  Q 247.75 375.14 247.54 374.16
  Q 247.37 373.32 247.14 372.49
  A 0.42 0.40 68.4 0 0 246.56 372.23
  Q 235.46 378.09 224.31 383.87
  Q 212.81 389.82 200.66 394.26
  A 0.91 0.86 -5.8 0 0 200.09 394.92
  Q 199.44 398.64 202.02 399.91
  Q 203.44 400.61 206.54 400.19
  Q 217.75 398.69 228.98 397.32
  Q 241.07 395.85 253.25 395.52
  Q 258.12 395.39 262.96 395.87
  Q 269.03 396.48 272.19 398.39
  Q 276.55 401.05 278.63 406.23
  A 1.70 1.65 6.4 0 0 279.23 406.96
  Q 285.20 410.99 286.31 418.28
  Q 286.83 421.72 283.85 423.42
  Q 282.12 424.40 280.46 425.47
  Q 278.40 426.80 276.91 427.08
  Q 270.99 428.22 268.81 421.98
  Q 268.03 419.72 268.10 417.38
  Q 268.14 415.98 269.01 414.31
  Q 270.02 412.35 270.44 411.37
  Q 271.97 407.83 268.24 406.89
  Q 264.55 405.96 260.93 405.76
  Q 258.33 405.62 253.59 406.19
  Q 230.75 408.93 207.60 412.05
  Q 203.64 412.59 206.13 415.72
  Q 221.95 435.53 238.00 456.60
  Q 240.68 460.12 242.57 463.23
  Q 245.39 467.86 246.44 470.31
  Q 248.02 474.00 248.64 480.06
  A 1.17 1.13 -74.6 0 0 249.08 480.86
  Q 257.57 487.49 256.30 498.06
  A 2.07 1.97 78.8 0 1 255.35 499.56
  L 246.46 504.91
  Q 244.95 505.81 243.26 505.05
  Q 233.64 500.70 235.63 489.47
  Q 235.97 487.57 236.24 485.66
  Q 236.51 483.78 236.06 481.87
  Q 235.48 479.41 234.87 476.96
  Q 234.23 474.40 233.08 472.26
  Q 229.06 464.82 223.88 458.16
  Q 218.47 451.19 218.40 451.09
  Q 207.78 436.81 196.86 422.42
  A 0.75 0.74 -26.7 0 0 196.05 422.16
  Q 192.70 423.18 189.50 422.81
  A 1.05 0.97 23.1 0 0 188.66 423.11
  Q 180.44 431.73 172.34 440.46
  Q 159.54 454.26 158.77 455.16
  Q 150.63 464.67 145.00 475.00
  Q 143.66 477.46 143.35 481.19
  A 0.94 0.90 21.8 0 0 143.71 481.99
  Q 150.42 487.13 151.98 495.50
  Q 152.40 497.79 151.41 499.49
  Q 150.76 500.59 148.55 501.89
  Q 145.60 503.62 142.45 505.53
  Q 140.60 506.66 138.64 505.74
  Q 129.99 501.69 131.72 489.42
  Q 132.05 487.09 130.82 485.09
  Q 130.07 483.88 130.83 480.27
  Q 133.07 469.62 139.84 461.11
  Q 158.47 437.72 179.42 414.62
  Q 179.93 414.06 179.18 413.97
  L 129.73 408.00
  Q 126.51 407.61 129.09 409.59
  Q 135.72 414.69 133.98 423.87
  A 2.05 2.03 84.3 0 1 132.77 425.36
  L 124.04 429.05
  A 2.08 2.06 41.9 0 1 122.63 429.12
  Q 115.73 426.99 115.70 420.00
  Q 115.68 417.02 115.74 414.05
  Q 115.80 410.58 116.71 408.23
  Q 118.28 404.12 121.19 401.19
  Q 122.63 399.73 124.76 398.88
  Q 126.27 398.27 128.83 398.09
  Q 144.19 397.01 159.51 398.70
  Q 171.10 399.97 182.96 401.34
  A 0.71 0.71 -81.9 0 0 183.74 400.75
  Q 184.25 397.82 183.74 396.16
  A 0.98 0.85 1.1 0 0 183.08 395.56
  Q 171.56 392.55 160.62 387.34
  Q 159.35 386.74 157.96 386.75
  Q 144.63 386.78 134.60 379.39
  Q 124.67 372.07 118.06 363.19
  Q 115.65 359.95 114.02 354.99
  Q 112.71 351.02 111.47 347.02
  Q 110.30 343.22 109.26 338.94
  Q 99.93 300.37 91.00 254.25
  Q 88.77 242.75 84.06 228.94
  Q 83.01 225.83 81.52 219.24
  Q 79.78 211.47 81.94 204.19
  Q 82.55 202.13 84.15 200.84
  Q 85.33 199.88 87.71 199.38
  Q 92.43 198.41 97.29 198.25
  Q 99.66 198.17 101.25 199.92
  Q 104.01 202.94 105.76 207.36
  Q 107.41 211.53 108.55 215.85
  Q 110.26 222.29 111.28 224.30
  Q 114.83 231.29 121.87 235.68
  Q 122.54 236.09 122.52 235.31
  Q 122.04 219.50 121.70 204.25
  Q 121.42 191.74 122.61 179.32
  Q 123.49 170.03 125.47 163.87
  Q 128.01 155.94 132.31 149.56
  Q 133.63 147.61 136.82 146.32
  Q 142.67 143.95 149.25 142.11
  A 3.31 3.30 -85.4 0 0 151.37 140.30
  Q 153.20 136.27 158.04 135.49
  Q 160.32 135.13 162.61 134.73
  Q 163.77 134.53 164.32 133.98
  Q 164.85 133.45 165.11 132.73
  A 0.94 0.81 36.5 0 0 164.92 131.87
  Q 159.59 125.78 154.09 119.83
  Q 146.44 111.56 143.93 107.32
  Q 134.06 90.66 139.54 70.51
  Q 144.81 51.15 161.77 44.50
  Q 169.45 41.48 180.04 41.26
  Q 189.43 41.06 198.72 43.11
  Q 209.93 45.59 218.09 53.66
  Q 221.53 57.05 223.42 61.35
  Q 224.93 64.80 226.11 69.56
  Q 227.16 73.81 227.08 78.20
  Q 227.04 80.73 227.11 85.68
  Q 227.15 88.63 226.58 91.54
  Q 226.08 94.17 226.27 96.51
  Q 226.85 103.52 225.75 112.50
  Q 224.47 122.97 221.38 132.58
  Q 221.05 133.62 222.01 133.09
  L 258.43 112.94
  A 1.09 1.06 -50.5 0 1 259.26 112.85
  L 276.37 118.12
  A 0.68 0.66 8.7 0 0 277.25 117.49
  Q 277.34 64.41 277.78 12.26
  Q 277.82 7.98 279.18 6.19
  Q 280.86 3.98 283.87 4.10
  Q 283.89 4.10 288.64 4.90
  Q 382.86 20.73 476.97 37.22
  Q 480.91 37.91 482.53 39.49
  Q 484.14 41.06 484.71 43.35
  Q 485.09 44.91 484.67 47.65
  Q 474.80 111.30 464.84 175.58
  A 0.70 0.70 13.1 0 0 465.32 176.35
  L 512.02 191.50
  Z
  M 279.69 34.44
  Q 279.32 81.06 279.06 127.53
  A 0.57 0.57 9.2 0 0 279.45 128.07
  L 459.26 187.05
  A 0.56 0.55 13.4 0 0 459.98 186.61
  Q 471.09 114.64 481.47 46.00
  Q 481.90 43.17 480.26 41.60
  Q 479.24 40.63 476.45 40.14
  Q 381.55 23.46 286.54 7.40
  Q 286.42 7.37 284.16 6.76
  Q 282.29 6.24 281.08 7.26
  Q 280.00 8.17 279.96 10.59
  Q 279.83 16.70 279.69 34.44
  Z
  M 214.56 53.44
  Q 207.38 47.15 199.03 45.13
  Q 186.55 42.12 174.15 43.70
  Q 163.37 45.08 156.54 49.35
  Q 148.22 54.55 144.06 64.06
  Q 133.45 88.33 147.32 108.69
  Q 149.45 111.81 156.59 119.46
  Q 161.36 124.56 166.11 130.06
  A 3.67 3.64 73.5 0 0 168.30 131.26
  Q 178.22 132.74 188.22 133.97
  Q 191.83 134.42 193.06 131.81
  Q 194.31 129.17 195.04 123.99
  Q 195.21 122.83 195.50 115.98
  Q 195.83 108.43 198.57 101.30
  Q 199.33 99.31 201.42 98.89
  Q 203.38 98.50 204.23 97.65
  Q 205.59 96.28 207.50 96.06
  Q 211.65 95.57 212.03 98.94
  A 1.58 1.41 -72.5 0 0 212.42 99.80
  Q 215.50 103.06 216.18 107.50
  A 0.86 0.50 84.3 0 0 216.70 108.22
  Q 217.09 108.25 217.19 107.49
  Q 219.10 93.16 224.82 79.18
  Q 225.35 77.90 225.20 76.52
  Q 224.42 69.25 221.48 62.27
  Q 220.25 59.36 218.61 57.44
  Q 216.97 55.54 214.56 53.44
  Z
  M 216.30 114.69
  A 0.81 0.80 5.7 0 1 215.75 114.02
  Q 215.04 107.57 211.63 101.96
  A 2.00 1.99 72.7 0 0 209.83 101.01
  Q 207.39 101.12 206.32 102.95
  Q 205.72 103.99 205.23 106.48
  Q 203.86 113.48 210.12 117.19
  A 1.57 1.22 9.7 0 1 210.76 117.89
  Q 212.12 121.33 209.09 121.70
  Q 207.44 121.90 205.88 120.61
  Q 199.18 115.10 200.44 105.91
  Q 200.49 105.57 200.73 105.17
  Q 201.27 104.30 200.30 104.28
  A 0.81 0.72 -76.0 0 0 199.60 104.76
  Q 197.55 109.29 199.50 114.50
  Q 200.20 116.36 198.06 116.14
  A 0.44 0.41 3.1 0 0 197.57 116.55
  Q 197.67 124.17 194.75 133.02
  A 3.33 3.32 -7.7 0 1 193.45 134.72
  Q 191.10 136.27 187.50 135.78
  Q 182.40 135.08 177.31 134.38
  A 0.57 0.36 1.6 0 0 176.65 134.77
  Q 176.71 135.06 177.30 135.22
  Q 186.21 137.67 195.00 140.50
  Q 202.00 142.76 206.36 146.42
  A 0.33 0.32 27.4 0 0 206.88 146.26
  Q 207.76 143.05 208.95 139.94
  Q 210.89 134.90 215.61 135.36
  Q 217.80 135.57 218.65 133.54
  Q 220.96 127.95 222.13 122.11
  Q 223.35 116.00 224.08 110.40
  Q 224.91 104.00 224.27 97.50
  Q 223.76 92.28 225.23 87.24
  Q 225.58 86.05 224.95 85.37
  A 0.34 0.31 -60.3 0 0 224.42 85.54
  Q 223.31 89.18 222.27 92.83
  Q 221.40 95.91 220.65 100.26
  Q 219.46 107.16 217.65 113.92
  Q 217.35 115.01 216.30 114.69
  Z
  M 203.68 112.92
  Q 202.04 107.26 204.98 101.35
  A 2.77 2.76 3.1 0 1 206.51 99.98
  Q 209.15 99.01 209.22 98.47
  Q 209.33 97.71 207.58 98.17
  Q 204.97 98.84 203.75 101.75
  Q 199.23 112.51 207.68 119.62
  A 1.06 0.88 55.0 0 0 208.56 119.86
  Q 209.60 119.59 208.35 118.65
  Q 206.82 117.50 205.54 116.12
  Q 204.20 114.69 203.68 112.92
  Z
  M 457.33 203.08
  L 459.35 190.07
  A 0.83 0.79 13.8 0 0 458.78 189.18
  L 279.80 130.35
  A 0.61 0.61 9.0 0 0 279.00 130.93
  Q 279.00 135.25 278.94 139.25
  Q 278.90 142.74 281.02 144.85
  Q 282.24 146.06 285.96 147.36
  Q 369.46 176.50 453.01 205.50
  Q 456.75 206.80 457.33 203.08
  Z
  M 202.57 146.18
  Q 200.13 144.41 197.26 143.46
  Q 182.85 138.68 167.65 134.33
  A 1.01 1.00 -59.1 0 0 166.67 134.58
  Q 164.08 137.15 163.50 140.82
  A 0.61 0.61 14.1 0 0 163.90 141.48
  Q 167.33 142.73 170.90 143.32
  Q 175.74 144.12 177.94 144.85
  Q 185.90 147.46 193.62 150.72
  Q 200.54 153.65 201.49 154.18
  Q 205.30 156.32 208.10 159.88
  Q 209.76 161.99 209.19 159.47
  Q 208.76 157.58 208.44 155.67
  Q 207.43 149.69 202.57 146.18
  Z
  M 161.49 137.74
  Q 161.79 137.81 161.99 137.66
  Q 162.51 137.28 161.75 137.17
  Q 156.21 136.40 153.45 141.15
  Q 152.36 143.03 150.67 143.68
  A 0.62 0.62 -28.6 0 0 150.39 144.63
  Q 156.26 152.46 165.00 154.99
  Q 169.91 156.42 175.00 157.02
  Q 181.80 157.83 188.53 159.06
  Q 194.57 160.17 199.94 163.81
  Q 207.52 168.96 211.71 172.03
  Q 214.52 174.08 215.80 175.61
  Q 217.82 178.03 216.36 175.23
  Q 211.34 165.55 204.34 159.01
  Q 201.64 156.50 197.40 154.60
  Q 182.98 148.16 178.25 147.00
  Q 171.13 145.26 163.95 143.73
  Q 158.29 142.52 160.83 137.96
  A 0.65 0.49 18.6 0 1 161.49 137.74
  Z
  M 150.38 147.96
  Q 149.17 146.49 147.85 145.12
  A 0.84 0.84 -29.7 0 0 147.01 144.89
  Q 142.27 146.32 137.69 148.18
  Q 134.79 149.36 133.31 151.81
  Q 129.69 157.85 127.40 164.70
  Q 125.49 170.40 124.71 178.51
  Q 123.47 191.40 123.75 204.36
  Q 124.03 217.87 124.04 218.15
  Q 124.16 227.48 124.66 236.80
  A 0.90 0.87 -78.4 0 0 125.13 237.54
  Q 138.77 244.63 147.44 252.31
  Q 155.47 259.43 158.00 268.25
  Q 165.38 293.98 170.54 320.47
  A 0.65 0.64 -16.7 0 0 171.42 320.94
  Q 197.48 310.45 224.71 301.85
  Q 225.90 301.48 224.80 300.89
  Q 219.19 297.93 216.01 292.16
  Q 207.59 276.88 199.70 261.31
  Q 194.53 251.11 194.23 250.31
  Q 192.02 244.48 192.18 238.00
  Q 192.35 231.12 193.69 224.42
  Q 195.18 216.96 198.08 211.60
  Q 202.27 203.84 209.31 198.39
  Q 213.84 194.88 218.37 194.04
  Q 223.46 193.09 228.75 194.50
  Q 230.48 194.96 229.06 193.69
  Q 226.25 191.16 223.69 188.39
  Q 222.80 187.43 218.99 182.50
  Q 214.71 176.95 209.05 172.71
  Q 202.26 167.62 194.98 163.24
  Q 192.07 161.49 194.14 164.18
  Q 204.43 177.59 214.52 191.43
  Q 215.88 193.31 213.92 193.13
  A 1.24 1.00 69.6 0 1 213.13 192.66
  L 189.74 161.95
  A 1.35 1.31 -12.5 0 0 188.95 161.46
  Q 178.87 159.36 170.44 158.31
  Q 160.34 157.06 152.97 150.72
  Q 151.92 149.81 150.38 147.96
  Z
  M 382.76 183.35
  L 345.98 170.48
  A 1.86 1.82 -47.7 0 0 344.60 170.56
  L 329.92 177.44
  Q 327.20 178.72 330.00 179.80
  Q 346.39 186.14 363.68 192.93
  Q 367.36 194.38 370.19 192.69
  Q 376.76 188.74 382.89 184.22
  Q 383.65 183.66 382.76 183.35
  Z
  M 266.39 189.30
  Q 265.74 189.00 265.02 189.01
  Q 262.87 189.04 266.63 191.17
  A 2.54 2.50 -33.3 0 0 268.18 191.48
  Q 270.47 191.19 266.39 189.30
  Z
  M 263.09 191.50
  Q 261.93 189.60 259.77 191.53
  Q 258.28 192.87 261.81 191.77
  A 1.48 1.48 61.1 0 1 263.36 192.22
  Q 264.54 193.59 265.28 193.64
  A 0.43 0.35 76.0 0 0 265.57 193.03
  Q 265.06 191.96 263.80 191.92
  A 0.87 0.87 -14.1 0 1 263.09 191.50
  Z
  M 272.17 192.94
  Q 273.68 192.48 271.97 191.90
  A 0.76 0.62 25.3 0 0 271.14 192.10
  Q 270.88 192.47 271.27 192.80
  A 1.06 0.82 -28.8 0 0 272.17 192.94
  Z
  M 276.88 194.27
  Q 275.49 192.69 274.91 194.02
  A 0.60 0.59 27.1 0 0 275.16 194.77
  Q 275.83 195.16 276.40 195.22
  Q 277.84 195.35 276.88 194.27
  Z
  M 254.62 194.69
  Q 254.45 195.49 255.37 194.81
  A 0.97 0.84 -23.6 0 0 255.76 194.00
  Q 255.67 193.28 254.85 194.24
  Q 254.67 194.45 254.62 194.69
  Z
  M 267.69 200.31
  Q 268.61 202.03 268.92 200.75
  A 0.88 0.85 27.8 0 0 268.64 199.90
  L 262.56 194.41
  A 1.66 1.55 -36.7 0 0 260.76 194.21
  Q 256.75 196.26 252.89 198.09
  Q 251.79 198.60 250.96 197.30
  A 0.80 0.78 -26.3 0 0 250.01 196.99
  Q 247.25 198.09 245.18 200.18
  Q 242.19 203.19 238.61 206.77
  A 2.57 2.11 68.7 0 0 237.99 208.67
  L 239.29 224.16
  A 1.06 0.99 84.1 0 0 240.41 225.13
  Q 246.46 224.39 251.43 222.25
  Q 252.41 221.83 257.86 218.34
  Q 261.39 216.07 265.48 214.82
  Q 267.83 214.11 268.78 212.39
  A 0.94 0.93 16.4 0 0 268.02 211.00
  Q 266.22 210.89 264.61 211.67
  Q 260.50 213.66 256.17 215.19
  Q 254.12 215.92 253.08 214.01
  Q 250.35 209.04 255.32 205.83
  Q 258.16 203.99 260.06 203.56
  Q 265.62 202.31 268.53 207.58
  A 4.18 4.16 -0.7 0 0 270.26 209.26
  Q 272.11 210.20 271.38 208.52
  Q 270.13 205.65 267.92 203.55
  Q 265.83 201.58 264.98 201.06
  Q 263.27 200.04 260.99 200.43
  Q 257.60 201.02 254.16 201.21
  Q 253.90 201.22 252.39 201.55
  Q 251.23 201.80 250.50 201.02
  Q 249.30 199.74 251.05 199.56
  L 259.44 198.73
  Q 259.89 198.69 260.35 198.40
  Q 261.83 197.45 263.37 198.04
  Q 265.05 198.68 265.21 198.73
  Q 267.14 199.29 267.69 200.31
  Z
  M 267.99 196.25
  Q 269.71 194.94 269.23 194.38
  Q 268.76 193.82 267.84 194.30
  Q 266.88 194.80 267.36 196.07
  A 0.41 0.41 -28.7 0 0 267.99 196.25
  Z
  M 279.87 195.36
  Q 279.07 195.31 279.20 196.20
  A 0.77 0.69 2.2 0 0 279.81 196.79
  Q 282.65 197.30 280.66 195.71
  Q 280.26 195.38 279.87 195.36
  Z
  M 230.05 195.60
  Q 228.66 196.37 227.77 196.17
  Q 222.13 194.90 216.92 196.47
  Q 213.40 197.54 209.83 200.70
  Q 206.86 203.34 203.94 206.69
  Q 199.99 211.22 197.97 216.50
  Q 196.45 220.46 195.23 227.47
  Q 194.23 233.17 194.23 239.00
  Q 194.23 246.06 197.44 252.31
  Q 205.52 268.06 213.86 283.66
  Q 218.16 291.69 220.06 294.19
  Q 224.05 299.41 229.75 300.50
  Q 239.51 302.36 246.85 295.10
  Q 258.18 283.88 268.67 271.89
  Q 273.92 265.89 274.94 263.00
  Q 276.90 257.40 273.58 251.37
  Q 270.36 245.52 265.50 243.50
  Q 259.68 241.08 255.81 245.31
  Q 250.00 251.67 243.96 259.36
  A 0.91 0.90 -36.0 0 0 243.82 260.21
  Q 247.06 269.34 249.25 279.00
  Q 250.46 284.34 247.69 290.63
  Q 247.41 291.26 246.95 291.54
  Q 245.85 292.20 245.62 290.99
  Q 245.52 290.44 245.85 289.68
  Q 248.24 284.25 247.25 279.25
  Q 245.77 271.74 241.69 260.56
  Q 239.99 255.91 238.65 246.92
  Q 237.87 241.66 237.64 233.02
  Q 237.33 221.21 236.14 209.44
  Q 235.67 204.74 234.69 202.20
  Q 233.32 198.68 230.86 195.75
  A 0.65 0.64 -34.3 0 0 230.05 195.60
  Z
  M 272.89 197.39
  Q 274.32 196.28 273.04 196.05
  Q 269.57 195.42 271.85 197.37
  A 0.82 0.81 -43.8 0 0 272.89 197.39
  Z
  M 284.85 197.43
  Q 283.63 196.85 283.64 198.07
  A 0.77 0.72 10.2 0 0 284.14 198.74
  Q 286.22 199.51 285.57 198.15
  Q 285.34 197.67 284.85 197.43
  Z
  M 275.59 198.68
  Q 275.53 199.70 277.09 199.23
  A 0.69 0.65 -10.7 0 0 277.57 198.56
  Q 277.50 197.18 276.11 197.93
  A 0.99 0.86 -14.4 0 0 275.59 198.68
  Z
  M 290.66 200.33
  Q 289.24 198.71 288.13 199.43
  A 0.62 0.57 -31.4 0 0 287.90 200.22
  Q 288.40 201.09 290.35 201.04
  Q 291.25 201.01 290.66 200.33
  Z
  M 281.83 199.94
  Q 280.47 199.29 279.58 200.12
  A 0.52 0.50 45.0 0 0 279.59 200.87
  Q 280.63 201.87 281.87 201.17
  Q 283.02 200.52 281.83 199.94
  Z
  M 83.94 215.89
  A 0.81 0.80 69.4 0 1 84.92 216.34
  Q 88.09 223.88 93.23 229.76
  Q 97.04 234.13 105.33 239.49
  Q 120.15 249.07 135.72 257.40
  Q 137.71 258.46 138.90 259.60
  Q 140.41 261.04 141.44 262.56
  Q 148.21 272.58 151.01 284.79
  Q 153.96 297.65 156.04 310.67
  Q 158.05 323.24 158.06 323.30
  Q 162.51 349.88 166.72 376.51
  Q 167.14 379.18 165.37 378.30
  A 1.02 0.86 -84.4 0 1 164.86 377.56
  Q 159.38 343.52 153.80 309.49
  Q 151.68 296.51 148.55 283.74
  Q 145.83 272.60 139.26 263.23
  Q 137.42 260.60 135.44 259.56
  Q 124.32 253.73 113.64 247.17
  Q 99.79 238.65 96.89 236.25
  Q 88.61 229.38 83.94 219.16
  A 0.51 0.36 61.2 0 0 83.33 218.86
  Q 83.11 219.04 83.26 219.50
  Q 87.61 232.12 90.92 245.04
  Q 92.63 251.70 95.15 264.56
  Q 101.57 297.26 109.12 329.72
  Q 111.97 341.97 115.83 353.93
  Q 117.51 359.11 121.94 364.56
  Q 130.08 374.58 140.39 380.44
  Q 145.19 383.16 150.72 384.01
  Q 158.90 385.27 167.23 384.34
  Q 172.25 383.78 175.19 381.69
  Q 178.80 379.11 178.19 373.98
  Q 176.89 363.17 174.95 352.46
  Q 167.71 312.55 157.68 273.25
  Q 155.13 263.27 149.44 257.31
  Q 140.49 247.95 126.93 240.88
  Q 122.35 238.49 120.40 237.15
  Q 117.73 235.33 114.31 232.69
  Q 102.22 223.36 98.45 209.01
  Q 97.59 205.78 98.25 202.49
  Q 98.72 200.14 96.33 200.27
  Q 92.36 200.49 88.19 201.37
  Q 86.13 201.80 85.14 202.83
  Q 83.91 204.11 83.53 206.01
  Q 82.64 210.43 83.06 214.92
  Q 83.17 216.14 83.94 215.89
  Z
  M 273.63 200.96
  A 0.49 0.49 -72.0 0 0 273.27 200.25
  Q 271.31 199.96 271.28 201.44
  A 0.77 0.71 -80.6 0 0 271.76 202.17
  Q 272.80 202.52 273.63 200.96
  Z
  M 294.61 201.53
  A 1.27 1.26 -46.5 0 0 293.27 201.57
  Q 291.38 202.84 294.30 203.34
  Q 295.07 203.48 295.53 203.20
  Q 296.49 202.62 294.61 201.53
  Z
  M 284.16 202.63
  Q 285.12 204.31 286.83 203.28
  A 0.54 0.52 -30.2 0 0 287.03 202.56
  Q 286.09 200.93 284.35 201.92
  A 0.52 0.52 -30.0 0 0 284.16 202.63
  Z
  M 275.69 202.45
  Q 274.56 203.51 276.05 203.93
  Q 277.58 204.37 278.10 203.23
  A 0.67 0.66 30.3 0 0 277.88 202.43
  Q 276.67 201.53 275.69 202.45
  Z
  M 100.20 206.81
  Q 102.06 215.81 108.08 223.88
  Q 108.52 224.48 108.38 223.75
  Q 106.03 212.15 101.20 203.06
  Q 100.20 201.17 100.02 203.30
  Q 99.86 205.18 100.20 206.81
  Z
  M 299.26 204.35
  Q 299.85 202.84 298.24 203.79
  A 1.17 0.86 -17.2 0 0 297.68 204.55
  Q 297.59 205.27 298.59 204.98
  A 1.07 1.00 -86.4 0 0 299.26 204.35
  Z
  M 274.82 208.47
  Q 278.39 206.13 274.94 205.51
  Q 274.04 205.34 273.32 204.78
  Q 272.43 204.08 272.04 204.11
  Q 271.57 204.15 271.99 204.98
  Q 272.89 206.77 273.97 208.31
  A 0.62 0.62 55.5 0 0 274.82 208.47
  Z
  M 291.56 204.19
  Q 290.27 203.61 289.17 204.21
  A 0.50 0.50 -31.9 0 0 289.00 204.93
  Q 289.79 206.06 291.25 205.75
  Q 293.83 205.21 291.56 204.19
  Z
  M 281.81 204.42
  Q 277.62 204.34 280.95 205.99
  Q 281.54 206.28 282.09 206.38
  Q 284.26 206.75 282.64 204.81
  A 1.13 1.09 -18.8 0 0 281.81 204.42
  Z
  M 301.70 205.48
  A 0.93 0.93 20.8 0 0 302.32 206.86
  Q 305.62 207.53 303.94 205.80
  Q 302.43 204.25 301.70 205.48
  Z
  M 263.90 205.93
  Q 262.53 205.16 260.81 205.70
  L 257.23 206.83
  Q 256.42 207.08 257.08 207.59
  Q 261.08 210.69 265.05 209.39
  Q 268.23 208.35 263.90 205.93
  Z
  M 293.75 207.18
  Q 293.99 208.27 295.05 207.50
  A 0.96 0.94 -19.1 0 0 295.45 206.69
  Q 295.39 205.24 294.06 206.35
  A 0.89 0.79 -27.9 0 0 293.75 207.18
  Z
  M 286.48 207.16
  Q 286.79 206.98 286.73 206.69
  A 0.63 0.51 -12.0 0 0 286.00 206.32
  Q 284.78 206.59 284.42 207.69
  A 0.50 0.46 -77.5 0 0 284.79 208.32
  Q 285.51 208.42 285.89 207.74
  A 1.67 1.13 -10.5 0 1 286.48 207.16
  Z
  M 309.66 208.19
  Q 307.18 206.35 306.40 208.27
  A 0.63 0.61 25.7 0 0 306.68 209.03
  Q 308.16 209.89 309.57 209.18
  A 0.58 0.58 50.3 0 0 309.66 208.19
  Z
  M 299.31 207.95
  Q 295.24 208.04 298.98 209.51
  A 1.13 0.95 38.1 0 0 299.89 209.48
  Q 300.88 208.94 300.20 208.25
  A 1.31 0.96 -17.5 0 0 299.31 207.95
  Z
  M 281.50 209.65
  A 1.77 1.77 39.6 0 0 279.14 209.87
  Q 273.85 215.64 269.29 222.18
  Q 268.88 222.77 268.39 222.97
  Q 267.31 223.40 267.11 222.31
  A 1.28 1.09 -36.1 0 1 267.33 221.40
  L 271.95 214.90
  A 0.51 0.46 -55.9 0 0 271.85 214.21
  Q 270.36 213.26 269.44 214.69
  Q 265.50 220.81 263.82 222.87
  A 1.25 1.21 -28.4 0 0 263.54 223.75
  Q 264.08 230.19 265.50 236.50
  Q 265.89 238.24 264.75 240.32
  A 0.45 0.45 -63.1 0 0 264.95 240.95
  Q 271.51 243.87 275.48 249.84
  A 0.50 0.48 -34.0 0 0 276.17 249.96
  Q 281.27 246.42 284.19 242.69
  Q 285.79 240.63 288.61 236.24
  Q 290.18 233.79 292.24 229.36
  Q 294.59 224.34 297.67 219.72
  Q 299.44 217.07 296.84 218.30
  Q 296.35 218.53 295.93 219.02
  Q 294.06 221.26 291.82 223.12
  A 1.38 1.08 -58.0 0 1 290.94 223.44
  Q 289.23 223.32 290.00 221.25
  Q 291.51 217.22 294.10 215.06
  A 0.76 0.67 -30.5 0 0 294.36 214.27
  Q 293.86 212.86 292.66 212.84
  Q 291.75 212.83 290.79 213.90
  Q 289.13 215.74 287.69 217.77
  Q 287.25 218.39 286.74 218.61
  Q 285.16 219.30 285.69 217.19
  Q 286.18 215.24 290.39 211.10
  A 0.94 0.82 -31.9 0 0 290.65 210.26
  Q 290.35 209.14 289.43 208.50
  A 0.80 0.73 -43.7 0 0 288.57 208.52
  Q 286.19 210.11 284.31 213.06
  Q 283.04 215.06 280.55 215.60
  A 0.51 0.50 -11.8 0 1 279.94 215.21
  Q 279.57 213.50 281.06 212.81
  Q 283.98 211.47 281.50 209.65
  Z
  M 254.77 209.04
  A 0.17 0.17 17.1 0 0 254.54 209.16
  Q 253.42 215.35 258.91 212.05
  Q 260.11 211.33 258.77 210.76
  L 254.77 209.04
  Z
  M 311.69 210.86
  Q 312.56 212.08 314.12 211.31
  A 0.57 0.57 66.4 0 0 314.40 210.59
  Q 313.59 208.49 311.80 210.09
  A 0.61 0.56 -38.9 0 0 311.69 210.86
  Z
  M 305.50 210.82
  Q 303.92 209.44 302.61 210.04
  A 0.53 0.53 -38.8 0 0 302.51 210.94
  Q 304.73 212.63 305.57 211.36
  A 0.42 0.41 37.7 0 0 305.50 210.82
  Z
  M 295.40 210.50
  Q 293.60 209.77 294.32 211.25
  A 1.14 1.07 -4.7 0 0 295.05 211.83
  Q 297.08 212.36 296.10 211.04
  Q 295.83 210.68 295.40 210.50
  Z
  M 272.91 211.39
  Q 272.90 211.05 272.50 210.99
  A 0.67 0.62 -76.0 0 0 271.80 211.45
  Q 271.53 212.21 272.40 211.96
  A 0.70 0.54 -10.6 0 0 272.91 211.39
  Z
  M 316.33 212.91
  Q 316.82 214.01 318.61 213.26
  A 0.83 0.83 52.4 0 0 318.79 211.84
  Q 317.40 210.76 316.46 212.01
  A 0.94 0.81 -40.9 0 0 316.33 212.91
  Z
  M 300.65 212.65
  Q 299.06 211.70 298.02 213.08
  A 0.44 0.43 -59.3 0 0 298.18 213.74
  Q 298.63 213.95 299.50 214.25
  Q 301.55 214.95 301.21 213.42
  A 1.28 1.18 11.1 0 0 300.65 212.65
  Z
  M 310.3062 213.2374
  A 1.54 0.91 4.0 0 0 308.8335 212.2222
  A 1.54 0.91 4.0 0 0 307.2338 213.0226
  A 1.54 0.91 4.0 0 0 308.7065 214.0378
  A 1.54 0.91 4.0 0 0 310.3062 213.2374
  Z
  M 323.44 214.30
  Q 322.28 213.19 321.43 213.42
  Q 320.34 213.72 320.67 214.85
  Q 320.97 215.90 323.28 215.05
  A 0.45 0.45 -33.1 0 0 323.44 214.30
  Z
  M 314.5013 214.6497
  A 1.40 0.79 -20.5 0 0 312.9133 214.4000
  A 1.40 0.79 -20.5 0 0 311.8787 215.6303
  A 1.40 0.79 -20.5 0 0 313.4667 215.8800
  A 1.40 0.79 -20.5 0 0 314.5013 214.6497
  Z
  M 306.03 215.31
  Q 304.39 214.01 303.17 215.07
  A 0.45 0.45 43.1 0 0 303.20 215.77
  Q 305.05 217.17 306.09 215.94
  A 0.44 0.43 -50.7 0 0 306.03 215.31
  Z
  M 325.40 215.61
  A 0.75 0.75 59.4 0 0 325.09 216.82
  Q 327.40 219.39 329.00 216.93
  A 0.54 0.53 -56.8 0 0 328.85 216.20
  Q 327.17 215.01 325.40 215.61
  Z
  M 316.44 217.62
  Q 316.99 218.37 317.94 217.94
  Q 320.12 216.94 317.97 216.34
  Q 316.89 216.04 316.40 216.74
  A 0.78 0.72 44.6 0 0 316.44 217.62
  Z
  M 308.71 216.76
  Q 306.81 217.14 308.32 218.02
  A 1.25 1.15 -35.3 0 0 309.24 218.14
  Q 311.24 217.62 309.64 216.87
  Q 309.20 216.67 308.71 216.76
  Z
  M 264.95 217.85
  Q 265.49 217.05 264.54 217.18
  Q 263.56 217.31 262.16 218.22
  A 0.53 0.51 -32.9 0 0 261.99 218.94
  Q 263.11 220.61 264.95 217.85
  Z
  M 300.73 218.46
  Q 301.80 219.80 301.83 218.19
  A 1.17 1.10 -70.4 0 0 301.46 217.34
  Q 300.49 216.46 300.43 217.57
  A 1.42 1.17 31.7 0 0 300.73 218.46
  Z
  M 332.81 217.94
  Q 331.52 217.59 330.53 218.51
  Q 329.54 219.43 330.28 219.83
  A 1.27 0.77 -31.7 0 0 331.21 219.82
  L 332.94 219.19
  Q 334.85 218.48 332.81 217.94
  Z
  M 324.08 218.94
  Q 318.71 217.34 321.90 220.65
  A 0.71 0.66 -34.1 0 0 322.69 220.77
  L 324.16 220.06
  Q 325.56 219.39 324.08 218.94
  Z
  M 314.03 218.70
  A 1.33 1.32 40.0 0 0 312.16 218.86
  Q 311.09 220.14 313.25 220.27
  Q 316.08 220.44 314.03 218.70
  Z
  M 304.32 219.68
  Q 304.10 221.03 305.52 220.21
  A 0.73 0.64 -24.4 0 0 305.87 219.44
  Q 305.67 218.73 304.90 218.98
  A 0.91 0.85 86.6 0 0 304.32 219.68
  Z
  M 336.92 219.80
  Q 335.06 219.24 334.42 220.53
  A 0.68 0.68 32.6 0 0 334.60 221.35
  Q 335.70 222.26 337.16 221.25
  Q 338.54 220.28 336.92 219.80
  Z
  M 261.65 222.40
  Q 262.02 221.06 259.41 220.53
  A 2.07 1.61 26.6 0 0 257.84 220.84
  L 255.68 222.57
  A 0.57 0.52 39.3 0 0 255.81 223.46
  L 260.64 226.19
  Q 261.88 226.89 261.50 225.52
  Q 261.27 224.66 261.27 223.81
  Q 261.27 223.74 261.65 222.40
  Z
  M 304.36 223.23
  A 0.54 0.53 28.8 0 0 304.14 222.48
  Q 302.36 221.58 300.97 220.96
  Q 300.41 220.71 299.98 220.84
  Q 299.31 221.04 299.27 221.69
  A 0.74 0.61 12.5 0 0 299.78 222.34
  Q 300.96 222.73 302.10 223.23
  Q 302.20 223.27 302.94 223.77
  Q 303.73 224.31 304.36 223.23
  Z
  M 310.7295 221.8497
  A 1.54 0.81 6.7 0 0 309.2945 220.8655
  A 1.54 0.81 6.7 0 0 307.6705 221.4903
  A 1.54 0.81 6.7 0 0 309.1055 222.4745
  A 1.54 0.81 6.7 0 0 310.7295 221.8497
  Z
  M 327.11 237.30
  Q 325.63 234.97 326.81 234.61
  Q 327.34 234.45 328.46 234.98
  Q 329.27 235.36 330.15 235.57
  Q 330.74 235.72 331.21 235.51
  Q 332.27 235.03 331.36 234.14
  Q 329.46 232.26 331.57 232.22
  Q 332.11 232.21 332.88 232.55
  Q 333.87 232.98 334.94 233.19
  Q 336.56 233.50 335.56 231.94
  Q 333.94 229.39 336.55 230.04
  Q 336.56 230.05 337.87 230.63
  Q 338.76 231.04 339.43 230.39
  A 0.73 0.62 54.8 0 0 339.50 229.57
  Q 337.98 226.77 341.56 228.19
  Q 342.73 228.65 343.10 227.97
  A 0.92 0.60 45.8 0 0 342.93 227.12
  Q 341.83 225.71 343.69 225.58
  A 1.63 0.98 47.6 0 1 344.60 225.85
  Q 346.08 226.76 347.31 225.81
  Q 349.33 224.26 345.26 223.85
  A 1.92 1.90 32.5 0 0 344.07 224.11
  Q 339.10 227.04 334.23 229.87
  Q 333.64 230.22 333.08 230.38
  Q 330.03 231.26 332.48 228.72
  Q 333.71 227.44 332.40 227.14
  Q 331.89 227.02 331.28 227.32
  Q 330.10 227.90 328.94 228.52
  A 1.16 1.01 -44.8 0 1 328.03 228.58
  Q 326.39 227.88 328.00 226.92
  A 0.76 0.58 -24.5 0 0 328.38 226.20
  Q 328.17 225.36 327.23 225.09
  A 1.52 1.01 -40.9 0 0 326.29 225.21
  L 323.96 226.29
  A 1.30 1.02 -41.9 0 1 323.03 226.35
  Q 321.87 225.89 322.80 225.01
  A 1.10 0.82 -30.5 0 0 323.15 224.18
  Q 322.89 222.33 321.01 224.00
  Q 318.68 226.07 318.15 223.80
  A 0.65 0.59 -19.4 0 1 318.52 223.11
  Q 322.76 221.18 317.49 220.95
  Q 315.82 220.87 317.35 222.90
  Q 317.91 223.65 316.97 223.72
  Q 315.61 223.83 314.09 223.04
  Q 313.54 222.75 313.24 222.80
  Q 312.72 222.89 312.50 223.50
  Q 311.97 224.96 314.44 225.81
  Q 320.74 227.99 326.50 231.31
  A 0.82 0.74 19.6 0 1 326.91 232.07
  Q 326.74 233.37 325.52 232.87
  Q 324.51 232.45 324.31 232.41
  Q 321.29 231.74 323.55 233.95
  Q 324.81 235.17 323.25 235.25
  Q 322.80 235.27 322.28 235.06
  Q 317.58 233.19 313.12 230.80
  A 1.33 0.97 12.8 0 1 312.51 230.10
  Q 312.05 228.38 315.78 229.57
  Q 317.07 229.98 316.50 228.74
  Q 316.25 228.22 314.93 227.91
  A 0.81 0.74 88.1 0 1 314.36 227.32
  Q 314.01 225.95 312.49 226.15
  A 1.62 1.21 -27.5 0 1 311.57 226.00
  Q 309.21 224.66 307.50 224.25
  Q 306.23 223.94 306.24 224.94
  A 0.91 0.73 14.5 0 0 306.77 225.65
  Q 307.80 226.15 308.81 226.69
  Q 310.52 227.61 309.19 228.50
  A 0.99 0.86 37.6 0 1 308.29 228.55
  Q 304.39 226.87 300.62 224.95
  Q 300.26 224.76 299.05 223.81
  Q 297.56 222.62 296.87 225.01
  A 0.62 0.59 20.3 0 0 297.21 225.71
  Q 310.67 231.93 324.26 237.87
  Q 324.34 237.91 325.09 238.31
  Q 326.29 238.94 327.04 238.11
  A 0.66 0.66 -40.3 0 0 327.11 237.30
  Z
  M 328.2590 221.1025
  A 1.61 0.76 -21.4 0 0 326.4827 220.9824
  A 1.61 0.76 -21.4 0 0 325.2610 222.2775
  A 1.61 0.76 -21.4 0 0 327.0373 222.3976
  A 1.61 0.76 -21.4 0 0 328.2590 221.1025
  Z
  M 339.40 222.89
  Q 340.36 224.60 342.14 223.08
  A 0.58 0.56 52.5 0 0 342.23 222.32
  Q 340.91 220.45 339.50 222.05
  A 0.74 0.72 -38.8 0 0 339.40 222.89
  Z
  M 333.3096 223.4426
  A 1.95 0.97 -1.1 0 0 331.3414 222.5102
  A 1.95 0.97 -1.1 0 0 329.4104 223.5174
  A 1.95 0.97 -1.1 0 0 331.3786 224.4498
  A 1.95 0.97 -1.1 0 0 333.3096 223.4426
  Z
  M 254.98 225.30
  Q 252.63 223.80 249.50 225.25
  Q 246.05 226.84 239.94 227.16
  A 0.54 0.53 -1.2 0 0 239.43 227.68
  Q 239.28 242.32 242.68 256.54
  Q 242.89 257.40 243.43 256.70
  Q 248.68 249.97 254.43 243.68
  Q 256.65 241.26 259.19 240.94
  Q 264.08 240.32 263.20 235.76
  Q 262.63 232.80 262.25 229.80
  A 1.03 1.01 11.2 0 0 261.74 229.06
  Q 259.28 227.68 256.75 226.41
  Q 256.66 226.36 254.98 225.30
  Z
  M 337.08 224.44
  Q 335.48 224.13 334.73 225.30
  A 0.56 0.55 32.7 0 0 334.90 226.06
  Q 336.12 226.86 337.42 225.70
  Q 338.52 224.72 337.08 224.44
  Z
  M 349.47 227.14
  A 0.47 0.47 24.4 0 0 349.73 227.83
  Q 352.17 228.61 352.80 227.04
  A 0.60 0.57 24.7 0 0 352.51 226.31
  Q 350.57 225.28 349.47 227.14
  Z
  M 354.49 228.94
  Q 354.29 229.89 354.95 230.19
  A 1.25 0.91 7.5 0 1 355.58 230.79
  Q 355.99 231.80 356.88 231.19
  Q 357.45 230.78 357.85 230.60
  Q 360.11 229.55 355.91 228.13
  A 1.09 1.09 15.3 0 0 354.49 228.94
  Z
  M 347.24 228.95
  Q 346.37 228.38 345.77 229.09
  A 0.56 0.52 40.1 0 0 345.86 229.85
  Q 346.38 230.29 347.07 230.44
  Q 347.49 230.53 347.89 230.33
  Q 349.13 229.75 347.95 229.31
  Q 347.61 229.18 347.24 228.95
  Z
  M 320.16 231.66
  Q 321.66 231.10 319.96 230.42
  A 0.72 0.66 29.4 0 0 319.14 230.61
  Q 318.69 231.19 319.24 231.58
  A 1.06 0.87 -34.4 0 0 320.16 231.66
  Z
  M 353.60 231.50
  Q 348.64 229.53 351.89 232.89
  A 1.54 1.26 66.0 0 0 352.74 233.32
  Q 354.45 233.49 354.20 232.17
  A 1.00 0.85 7.7 0 0 353.60 231.50
  Z
  M 343.58 231.32
  Q 340.44 230.58 342.29 232.23
  Q 342.68 232.58 343.17 232.72
  Q 345.16 233.29 344.34 231.87
  A 1.21 1.09 -6.0 0 0 343.58 231.32
  Z
  M 361.92 256.09
  Q 372.03 261.14 382.12 266.22
  A 0.97 0.93 -46.3 0 0 383.00 266.18
  L 407.83 252.03
  Q 408.82 251.46 407.79 250.99
  L 367.36 232.85
  A 1.60 1.57 42.4 0 0 365.94 232.90
  L 342.81 245.64
  Q 341.93 246.12 342.84 246.57
  Q 352.25 251.25 361.92 256.09
  Z
  M 343.38 238.06
  Q 343.40 238.53 343.76 238.68
  A 1.17 0.52 -37.1 0 0 344.67 238.47
  L 350.58 234.92
  Q 351.53 234.35 350.54 234.02
  L 347.50 233.00
  Q 345.87 232.45 346.75 233.75
  Q 348.93 236.95 345.45 235.97
  Q 344.54 235.71 344.01 235.68
  Q 341.40 235.54 343.08 237.22
  A 1.40 0.88 -77.3 0 1 343.38 238.06
  Z
  M 339.28 233.46
  Q 338.19 233.13 337.50 234.08
  A 0.46 0.44 30.6 0 0 337.69 234.74
  Q 338.87 235.33 340.19 235.24
  A 0.81 0.68 4.1 0 0 340.89 234.73
  Q 341.07 234.06 340.38 233.81
  Q 340.13 233.72 339.28 233.46
  Z
  M 336.31 236.19
  Q 335.07 235.49 333.94 236.00
  A 0.55 0.55 65.2 0 0 333.67 236.73
  Q 334.26 237.98 335.81 237.81
  Q 338.68 237.51 336.31 236.19
  Z
  M 342.21 238.88
  L 339.52 237.95
  Q 338.45 237.58 338.90 238.68
  Q 340.15 241.74 342.32 239.72
  A 0.52 0.47 -55.4 0 0 342.21 238.88
  Z
  M 332.54 239.68
  Q 332.24 237.87 330.21 238.50
  Q 326.77 239.57 331.32 240.79
  A 0.98 0.98 2.7 0 0 332.54 239.68
  Z
  M 338.45 241.44
  Q 336.29 240.02 334.12 241.33
  A 0.57 0.57 46.9 0 0 334.09 242.28
  Q 336.51 243.99 338.51 242.12
  A 0.44 0.43 -50.2 0 0 338.45 241.44
  Z
  M 280.65 282.23
  Q 281.09 283.59 279.08 284.45
  Q 277.72 285.03 278.32 285.51
  A 1.17 0.65 -23.0 0 0 279.23 285.61
  Q 280.75 285.25 282.26 285.75
  A 1.37 1.36 12.9 0 0 284.05 284.63
  Q 285.38 273.81 282.26 263.00
  Q 281.39 259.96 279.00 258.11
  Q 277.58 257.01 277.56 258.80
  Q 277.49 265.44 273.09 270.32
  Q 266.38 277.75 259.37 285.27
  Q 258.40 286.30 259.80 286.24
  L 272.66 285.64
  A 3.41 2.87 21.5 0 0 274.38 285.06
  L 278.94 281.71
  A 1.12 1.08 -27.3 0 1 280.65 282.23
  Z
  M 266.97 294.76
  Q 269.92 295.86 271.69 298.31
  Q 275.04 302.95 276.76 308.84
  Q 277.95 312.89 278.99 320.20
  Q 280.08 327.82 279.99 335.91
  A 1.35 1.35 84.9 0 0 281.59 337.25
  Q 299.34 333.96 317.04 326.93
  A 1.56 1.19 -41.0 0 1 317.99 326.87
  Q 319.30 327.29 318.42 328.25
  Q 318.07 328.63 317.33 328.95
  Q 307.90 333.02 297.52 335.54
  A 1.02 1.02 -5.6 0 0 296.74 336.49
  Q 296.36 346.73 296.73 357.07
  Q 297.28 372.10 297.12 376.44
  Q 296.76 386.14 295.49 395.78
  Q 294.99 399.60 295.24 402.53
  Q 295.46 405.14 298.07 404.85
  Q 305.24 404.06 311.66 402.36
  Q 316.83 401.00 318.86 399.10
  Q 321.76 396.37 322.50 391.50
  Q 323.34 385.99 328.32 359.75
  Q 330.73 347.06 331.71 340.06
  Q 333.79 325.22 334.67 310.25
  Q 334.97 304.97 334.00 301.00
  Q 332.07 293.13 325.69 289.90
  Q 321.99 288.03 313.01 287.67
  Q 304.34 287.32 295.66 287.47
  Q 289.04 287.59 278.34 287.64
  Q 268.03 287.69 257.25 288.58
  A 2.34 2.32 18.4 0 0 255.73 289.33
  Q 253.20 292.08 251.11 293.82
  Q 250.75 294.12 250.62 294.40
  Q 250.22 295.27 251.50 295.00
  Q 256.37 293.99 261.32 293.98
  Q 264.86 293.98 266.97 294.76
  Z
  M 262.87 308.81
  Q 264.39 308.90 265.68 309.70
  Q 267.46 310.81 266.64 311.68
  A 1.06 0.88 23.0 0 1 265.75 311.95
  Q 264.64 311.77 263.75 311.08
  Q 263.35 310.77 263.04 310.71
  Q 261.87 310.47 262.56 311.69
  Q 264.73 315.49 265.18 316.81
  Q 271.55 335.48 270.97 356.29
  Q 270.94 357.32 271.76 356.75
  L 276.02 353.78
  Q 277.19 352.96 277.37 351.20
  Q 279.43 331.61 275.71 313.51
  Q 274.45 307.42 271.58 301.93
  Q 268.12 295.32 260.50 296.00
  Q 253.38 296.64 249.08 297.52
  Q 247.29 297.89 244.93 299.46
  Q 238.38 303.80 230.11 302.55
  Q 229.45 302.45 228.82 302.65
  Q 200.12 311.68 171.69 323.07
  A 0.60 0.55 -17.7 0 0 171.33 323.70
  L 173.36 333.02
  A 0.49 0.45 -15.7 0 0 173.98 333.34
  Q 197.07 325.78 220.24 318.47
  Q 235.73 313.59 251.52 309.82
  Q 257.15 308.47 262.87 308.81
  Z
  M 258.06 310.96
  Q 253.12 311.21 248.71 312.45
  A 0.86 0.85 69.7 0 0 248.17 313.64
  Q 252.36 322.51 254.40 331.77
  Q 255.43 336.49 253.65 341.02
  A 0.56 0.53 -82.9 0 0 254.21 341.77
  L 267.70 340.03
  A 0.55 0.53 83.8 0 0 268.15 339.45
  Q 267.08 326.48 261.90 314.58
  Q 260.95 312.39 259.00 311.19
  A 1.68 1.44 -26.9 0 0 258.06 310.96
  Z
  M 173.99 336.47
  L 179.21 366.25
  A 0.82 0.82 84.7 0 0 180.03 366.93
  Q 189.69 366.85 199.76 365.86
  Q 215.35 364.33 229.94 358.69
  Q 237.98 355.59 244.60 350.11
  Q 249.94 345.68 252.06 339.27
  Q 252.90 336.73 252.73 334.14
  Q 252.56 331.52 251.79 328.99
  Q 249.51 321.44 246.07 313.86
  A 0.90 0.89 69.9 0 0 245.01 313.36
  Q 209.51 323.53 174.57 335.48
  A 0.89 0.89 -14.7 0 0 173.99 336.47
  Z
  M 294.29 353.08
  A 0.37 0.37 88.6 0 0 294.67 352.68
  Q 294.21 345.09 294.78 336.82
  A 0.44 0.43 -4.9 0 0 294.24 336.37
  L 281.92 339.38
  A 0.61 0.59 -14.3 0 0 281.47 340.11
  Q 283.87 349.96 276.58 356.12
  A 1.58 1.00 -24.4 0 0 276.06 356.91
  Q 275.81 358.21 277.50 357.75
  Q 281.55 356.64 283.34 355.62
  Q 288.14 352.88 294.29 353.08
  Z
  M 180.68 378.39
  Q 187.53 380.75 194.23 380.26
  Q 196.92 380.07 199.34 378.87
  Q 233.13 362.20 267.55 346.86
  Q 269.29 346.08 268.48 342.96
  A 0.82 0.80 -9.9 0 0 267.61 342.36
  L 253.39 343.86
  A 1.79 1.79 14.3 0 0 252.13 344.58
  Q 244.70 354.72 233.81 359.38
  Q 222.09 364.40 209.49 366.42
  Q 194.84 368.77 179.98 369.00
  A 0.54 0.48 87.8 0 0 179.51 369.57
  L 179.97 377.34
  A 1.23 1.04 -84.1 0 0 180.68 378.39
  Z
  M 166.68 387.81
  Q 174.28 391.19 182.32 393.12
  Q 188.53 394.61 193.30 393.96
  Q 198.60 393.23 204.06 390.81
  Q 219.72 383.88 226.38 380.33
  Q 240.43 372.86 254.62 365.68
  Q 254.74 365.61 261.07 362.61
  Q 264.77 360.85 268.26 358.70
  A 1.02 0.84 -18.2 0 0 268.74 357.94
  L 268.97 349.04
  A 0.50 0.48 -12.1 0 0 268.26 348.61
  Q 237.14 362.75 206.16 377.76
  Q 198.51 381.47 198.20 381.57
  Q 193.84 383.11 189.25 382.50
  Q 185.82 382.04 179.79 380.44
  A 0.79 0.77 -62.5 0 0 179.00 380.70
  Q 174.37 386.26 166.99 386.31
  Q 163.37 386.34 166.68 387.81
  Z
  M 293.87 355.23
  Q 288.88 354.97 285.23 357.02
  Q 281.27 359.24 276.81 360.21
  A 1.14 1.09 7.4 0 0 276.07 360.75
  Q 269.70 372.20 256.54 374.24
  Q 253.79 374.67 250.78 374.76
  A 1.11 1.00 3.0 0 0 249.72 375.62
  L 248.73 382.59
  Q 248.47 384.43 250.33 385.30
  Q 254.79 387.38 260.27 385.56
  Q 264.53 384.14 268.17 381.62
  Q 273.63 377.83 273.66 377.81
  Q 279.14 374.64 285.81 372.31
  Q 290.00 370.85 294.76 367.95
  A 0.85 0.85 -16.8 0 0 295.17 367.19
  L 294.72 356.08
  A 0.89 0.88 0.4 0 0 293.87 355.23
  Z
  M 249.44 370.94
  Q 248.50 371.58 249.14 372.39
  A 1.16 0.89 -15.4 0 0 250.00 372.74
  Q 257.30 372.52 262.94 370.19
  Q 269.42 367.50 273.54 361.08
  Q 273.97 360.41 274.06 359.68
  Q 274.38 357.30 273.08 358.33
  Q 272.26 358.98 271.94 359.16
  Q 269.20 360.69 266.45 362.19
  Q 264.16 363.43 260.80 364.89
  Q 253.88 367.89 249.44 370.94
  Z
  M 277.70 377.76
  Q 277.18 377.90 277.14 378.27
  A 0.44 0.34 -10.2 0 0 277.73 378.58
  Q 286.07 375.55 294.13 371.83
  Q 294.45 371.68 294.66 371.44
  Q 296.12 369.79 294.20 370.71
  Q 286.77 374.26 278.98 376.93
  Q 278.66 377.04 278.45 377.26
  A 1.82 0.86 -59.0 0 1 277.70 377.76
  Z
  M 273.44 380.44
  Q 270.84 383.09 262.40 386.84
  Q 256.41 389.50 250.20 387.40
  Q 248.67 386.89 249.61 387.97
  Q 249.80 388.19 250.08 388.29
  Q 260.56 392.07 268.76 384.76
  Q 271.16 382.63 273.85 380.90
  A 0.62 0.48 -26.1 0 0 274.15 380.30
  Q 274.03 379.83 273.44 380.44
  Z
  M 298.10 412.27
  A 4.63 4.56 -33.2 0 0 300.55 412.76
  Q 314.68 411.73 328.63 410.21
  Q 339.87 408.98 345.21 407.46
  Q 353.36 405.13 360.77 400.75
  Q 364.11 398.77 363.87 395.48
  Q 363.69 392.98 361.08 391.02
  Q 353.78 385.57 344.14 387.98
  Q 335.56 390.13 326.05 389.18
  A 1.18 1.18 3.1 0 0 324.75 390.34
  Q 324.63 400.57 314.67 403.62
  Q 305.41 406.45 295.75 406.97
  A 0.62 0.59 1.6 0 0 295.17 407.49
  Q 294.79 410.59 298.10 412.27
  Z
  M 152.21 459.25
  Q 150.11 463.03 152.96 459.50
  Q 155.54 455.42 159.94 450.69
  Q 174.33 435.21 188.77 419.85
  A 1.01 1.00 46.4 0 1 190.27 419.89
  Q 191.82 421.71 194.52 420.33
  A 0.63 0.62 68.9 0 0 194.84 419.60
  Q 194.39 417.91 195.02 417.82
  A 1.82 1.82 67.5 0 1 196.75 418.54
  Q 211.94 439.14 226.54 458.21
  Q 227.60 459.60 232.25 466.75
  Q 236.81 473.77 237.76 480.70
  Q 238.28 484.49 241.50 485.00
  Q 244.24 485.44 245.61 483.48
  Q 246.53 482.16 246.43 479.70
  Q 246.18 473.77 243.25 468.52
  Q 239.80 462.34 236.94 458.56
  Q 222.11 439.00 199.06 410.28
  Q 198.59 409.69 198.49 409.25
  Q 198.21 408.12 199.64 408.31
  A 2.62 2.59 79.9 0 1 201.64 409.72
  Q 203.41 413.25 204.16 411.02
  A 0.93 0.92 5.1 0 1 204.91 410.40
  Q 229.69 406.98 253.41 403.94
  Q 260.78 403.00 267.98 404.82
  Q 271.01 405.59 272.80 408.15
  Q 273.85 409.65 275.69 408.92
  A 1.55 1.54 68.7 0 0 276.56 406.92
  Q 274.99 402.95 271.79 400.63
  Q 269.32 398.83 264.67 398.13
  Q 258.64 397.23 252.50 397.49
  Q 240.83 397.97 229.24 399.40
  Q 216.15 401.02 202.32 402.65
  A 1.63 1.60 59.5 0 1 201.19 402.35
  Q 198.08 400.04 198.00 396.09
  A 0.73 0.73 81.5 0 0 197.07 395.40
  Q 191.92 396.86 186.54 395.96
  A 0.46 0.44 4.4 0 0 186.00 396.40
  L 186.20 402.11
  A 1.40 1.29 -88.1 0 1 184.78 403.56
  Q 174.00 402.39 163.77 401.10
  Q 147.11 398.99 130.38 400.01
  Q 126.30 400.26 123.99 401.80
  Q 119.52 404.77 118.34 410.51
  A 0.59 0.58 -75.3 0 0 118.72 411.18
  Q 120.45 411.77 121.88 411.00
  Q 122.47 410.68 123.96 408.45
  Q 125.87 405.60 129.75 406.00
  Q 151.89 408.31 180.69 412.12
  A 1.35 1.28 30.6 0 0 181.61 411.91
  Q 183.04 410.92 184.16 409.57
  Q 184.65 408.98 185.15 408.78
  Q 186.66 408.16 186.37 409.75
  Q 186.25 410.37 185.71 410.96
  Q 165.79 432.44 142.19 461.69
  Q 135.13 470.43 132.88 480.35
  Q 132.33 482.79 132.96 484.11
  Q 133.96 486.19 136.92 485.99
  Q 140.85 485.72 141.19 481.94
  Q 141.71 476.13 144.49 471.42
  A 1.29 1.17 56.4 0 0 144.63 470.51
  Q 144.39 469.32 144.69 468.69
  Q 150.57 456.43 156.31 449.06
  Q 161.26 442.72 187.87 412.61
  Q 189.55 410.71 189.68 412.69
  A 1.36 1.14 -30.7 0 1 189.37 413.57
  Q 174.21 431.54 158.86 449.35
  Q 154.94 453.90 152.21 459.25
  Z
  M 296.26 414.43
  Q 299.35 416.74 301.76 416.86
  Q 306.19 417.09 310.55 416.45
  Q 317.88 415.38 318.01 415.36
  Q 337.95 413.27 346.00 411.50
  Q 356.07 409.29 364.20 402.99
  Q 366.77 401.00 366.10 398.45
  Q 365.68 396.81 365.30 398.46
  Q 364.82 400.55 363.47 401.42
  Q 351.64 409.00 337.75 411.25
  Q 329.14 412.65 308.07 414.12
  Q 308.03 414.13 304.45 414.57
  Q 300.93 415.01 296.35 414.21
  Q 295.85 414.13 296.26 414.43
  Z
  M 118.49 413.38
  A 0.74 0.74 8.2 0 0 117.72 413.95
  Q 117.36 415.52 118.25 417.16
  Q 120.79 421.86 123.78 426.27
  A 0.67 0.58 60.6 0 0 124.53 426.54
  L 130.82 423.75
  A 0.59 0.58 68.0 0 0 131.12 423.02
  L 126.44 410.00
  Q 126.02 408.82 125.55 410.01
  Q 124.05 413.75 118.49 413.38
  Z
  M 271.60 414.82
  Q 277.30 417.21 278.25 422.77
  A 1.01 0.98 67.2 0 0 279.81 423.43
  L 283.75 420.55
  A 2.14 2.04 64.6 0 0 284.50 418.27
  Q 283.12 413.33 279.90 409.80
  A 0.97 0.96 -38.5 0 0 278.63 409.66
  Q 276.27 411.33 273.40 411.15
  A 0.79 0.77 -75.0 0 0 272.66 411.59
  L 271.39 414.23
  A 0.44 0.43 -65.1 0 0 271.60 414.82
  Z
  M 130.90 415.51
  Q 132.16 420.64 131.72 416.38
  Q 131.69 416.06 131.55 415.76
  Q 130.24 412.85 130.90 415.51
  Z
  M 272.74 424.25
  Q 274.02 425.37 276.19 425.22
  A 0.46 0.46 -7.3 0 0 276.61 424.68
  Q 275.75 419.45 271.71 416.92
  Q 270.10 415.91 270.19 417.81
  Q 270.41 422.20 272.74 424.25
  Z
  M 119.69 425.31
  Q 120.11 425.89 120.53 425.91
  Q 121.11 425.93 120.72 425.33
  Q 119.41 423.29 118.45 421.06
  Q 118.02 420.06 117.60 420.41
  A 0.91 0.63 64.0 0 0 117.46 421.29
  Q 118.05 423.05 119.69 425.31
  Z
  M 238.45 489.07
  Q 243.84 494.06 245.90 501.80
  A 0.73 0.72 68.0 0 0 246.95 502.25
  Q 248.89 501.16 251.08 499.78
  Q 251.16 499.73 252.59 498.96
  Q 254.66 497.86 254.62 495.67
  Q 254.60 494.81 254.04 492.20
  Q 252.96 487.22 248.73 483.40
  A 0.44 0.43 37.9 0 0 248.07 483.48
  Q 245.20 487.93 240.32 486.74
  Q 240.28 486.73 239.11 486.22
  Q 237.71 485.62 238.09 488.37
  A 1.13 1.11 -72.8 0 0 238.45 489.07
  Z
  M 149.81 494.19
  Q 147.49 488.32 143.70 484.57
  Q 143.54 484.41 143.39 484.39
  Q 143.11 484.34 143.03 484.61
  A 1.05 0.39 54.4 0 0 143.23 485.34
  L 149.29 495.80
  A 0.34 0.29 48.1 0 0 149.83 495.87
  Q 150.22 495.22 149.81 494.19
  Z
  M 135.15 488.18
  Q 132.90 488.05 133.99 490.02
  L 141.22 503.08
  A 0.57 0.56 60.5 0 0 141.99 503.30
  L 148.28 499.63
  A 0.93 0.92 59.3 0 0 148.60 498.35
  L 142.03 487.22
  A 0.80 0.80 62.2 0 0 141.00 486.90
  Q 137.91 488.34 135.15 488.18
  Z
  M 242.39 502.40
  Q 244.47 503.94 243.66 501.48
  Q 241.94 496.28 238.69 492.02
  Q 237.16 490.02 237.24 492.54
  Q 237.43 498.72 242.39 502.40
  Z
  M 138.34 503.51
  Q 138.83 504.13 138.96 503.43
  A 1.32 0.84 44.4 0 0 138.77 502.62
  L 133.99 494.49
  Q 133.01 492.81 133.11 494.74
  Q 133.38 499.72 137.98 503.16
  Q 138.16 503.29 138.34 503.51
  Z"
/>
<path fill="#000000" d="
  M 150.84 160.95
  Q 143.96 170.61 142.50 180.75
  Q 139.35 202.56 138.31 232.00
  L 137.94 238.94
  A 1.22 0.84 79.5 0 1 137.57 239.77
  Q 136.73 240.40 136.23 239.54
  Q 136.00 239.13 136.00 238.42
  Q 135.97 228.67 137.50 210.50
  Q 138.67 196.60 140.25 182.75
  Q 141.01 176.13 142.77 171.76
  Q 145.70 164.50 150.03 157.98
  A 0.72 0.65 -63.5 0 1 150.79 157.68
  Q 153.11 158.39 150.84 160.95
  Z"
/>
<!-- <path fill="#ffffff" d="
  M 150.84 160.95
  L 138.31 232.00
  Q 139.35 202.56 142.50 180.75
  Q 143.96 170.61 150.84 160.95
  Z"
/> -->
<path fill="#000000" d="
  M 130.93 403.64
  Q 128.50 403.51 126.07 403.45
  A 1.31 0.83 -11.6 0 1 125.18 403.11
  Q 124.76 402.63 125.15 402.10
  A 1.27 0.84 9.0 0 1 126.01 401.71
  Q 128.67 401.50 133.50 401.75
  Q 157.78 402.99 181.99 405.06
  Q 183.48 405.19 183.27 406.27
  A 0.89 0.88 7.7 0 1 182.33 406.98
  Q 155.11 404.92 130.93 403.64
  Z"
/>
<path fill="#000000" d="
  M 186.13 407.00
  A 1.09 1.08 28.7 0 1 185.66 405.40
  Q 186.17 404.63 187.76 405.41
  Q 193.63 408.28 198.06 403.81
  Q 199.63 402.23 199.69 404.06
  Q 199.73 405.30 198.91 406.04
  Q 198.58 406.32 197.21 407.09
  Q 192.50 409.74 186.13 407.00
  Z"
/>
<path fill="#000000" d="
  M 233.81 464.19
  Q 234.59 466.27 232.78 465.63
  A 1.26 1.10 84.7 0 1 232.11 464.99
  Q 226.69 453.25 222.44 447.81
  Q 208.53 430.04 194.86 412.08
  A 1.27 0.85 39.1 0 1 194.59 411.20
  Q 194.74 410.35 195.70 410.46
  A 1.35 0.98 68.0 0 1 196.50 410.96
  Q 209.17 427.24 221.78 443.57
  Q 226.00 449.03 228.53 453.43
  Q 232.10 459.62 233.81 464.19
  Z"
/>
<path fill="#000000" d="
  M 130.90 415.51
  Q 130.24 412.85 131.55 415.76
  Q 131.69 416.06 131.72 416.38
  Q 132.16 420.64 130.90 415.51
  Z"
/>
</svg>
